ISO-10303-21;
HEADER;
/* Generated by software containing ST-Developer
 * from STEP Tools, Inc. (www.steptools.com) 
 */

FILE_DESCRIPTION(
/* description */ (''),
/* implementation_level */ '2;1');

FILE_NAME(
/* name */ 'SRS Bottom Box.step',
/* time_stamp */ '2026-03-13T02:50:14+06:00',
/* author */ (''),
/* organization */ (''),
/* preprocessor_version */ 'ST-DEVELOPER v20.1',
/* originating_system */ 'Autodesk Translation Framework v14.24.0.0',
/* authorisation */ '');

FILE_SCHEMA (('AUTOMOTIVE_DESIGN { 1 0 10303 214 3 1 1 }'));
ENDSEC;

DATA;
#10=MECHANICAL_DESIGN_GEOMETRIC_PRESENTATION_REPRESENTATION('',(#41),#923);
#11=ITEM_DEFINED_TRANSFORMATION($,$,#590,#591);
#12=ITEM_DEFINED_TRANSFORMATION($,$,#590,#592);
#13=ITEM_DEFINED_TRANSFORMATION($,$,#590,#593);
#14=ITEM_DEFINED_TRANSFORMATION($,$,#590,#594);
#15=ITEM_DEFINED_TRANSFORMATION($,$,#537,#596);
#16=ITEM_DEFINED_TRANSFORMATION($,$,#589,#597);
#17=ITEM_DEFINED_TRANSFORMATION($,$,#595,#598);
#18=(
REPRESENTATION_RELATIONSHIP($,$,#948,#947)
REPRESENTATION_RELATIONSHIP_WITH_TRANSFORMATION(#11)
SHAPE_REPRESENTATION_RELATIONSHIP()
);
#19=(
REPRESENTATION_RELATIONSHIP($,$,#948,#947)
REPRESENTATION_RELATIONSHIP_WITH_TRANSFORMATION(#12)
SHAPE_REPRESENTATION_RELATIONSHIP()
);
#20=(
REPRESENTATION_RELATIONSHIP($,$,#948,#947)
REPRESENTATION_RELATIONSHIP_WITH_TRANSFORMATION(#13)
SHAPE_REPRESENTATION_RELATIONSHIP()
);
#21=(
REPRESENTATION_RELATIONSHIP($,$,#948,#947)
REPRESENTATION_RELATIONSHIP_WITH_TRANSFORMATION(#14)
SHAPE_REPRESENTATION_RELATIONSHIP()
);
#22=(
REPRESENTATION_RELATIONSHIP($,$,#946,#945)
REPRESENTATION_RELATIONSHIP_WITH_TRANSFORMATION(#15)
SHAPE_REPRESENTATION_RELATIONSHIP()
);
#23=(
REPRESENTATION_RELATIONSHIP($,$,#947,#945)
REPRESENTATION_RELATIONSHIP_WITH_TRANSFORMATION(#16)
SHAPE_REPRESENTATION_RELATIONSHIP()
);
#24=(
REPRESENTATION_RELATIONSHIP($,$,#949,#945)
REPRESENTATION_RELATIONSHIP_WITH_TRANSFORMATION(#17)
SHAPE_REPRESENTATION_RELATIONSHIP()
);
#25=CONTEXT_DEPENDENT_SHAPE_REPRESENTATION(#18,#937);
#26=CONTEXT_DEPENDENT_SHAPE_REPRESENTATION(#19,#938);
#27=CONTEXT_DEPENDENT_SHAPE_REPRESENTATION(#20,#939);
#28=CONTEXT_DEPENDENT_SHAPE_REPRESENTATION(#21,#940);
#29=CONTEXT_DEPENDENT_SHAPE_REPRESENTATION(#22,#942);
#30=CONTEXT_DEPENDENT_SHAPE_REPRESENTATION(#23,#943);
#31=CONTEXT_DEPENDENT_SHAPE_REPRESENTATION(#24,#944);
#32=NEXT_ASSEMBLY_USAGE_OCCURRENCE(
'92610A247_Torx Alloy Steel Socket Head Screws:1',
'92610A247_Torx Alloy Steel Socket Head Screws:1',
'92610A247_Torx Alloy Steel Socket Head Screws:1',#953,#954,
'92610A247_Torx Alloy Steel Socket Head Screws:1');
#33=NEXT_ASSEMBLY_USAGE_OCCURRENCE(
'92610A247_Torx Alloy Steel Socket Head Screws:2',
'92610A247_Torx Alloy Steel Socket Head Screws:2',
'92610A247_Torx Alloy Steel Socket Head Screws:2',#953,#954,
'92610A247_Torx Alloy Steel Socket Head Screws:2');
#34=NEXT_ASSEMBLY_USAGE_OCCURRENCE(
'92610A247_Torx Alloy Steel Socket Head Screws:3',
'92610A247_Torx Alloy Steel Socket Head Screws:3',
'92610A247_Torx Alloy Steel Socket Head Screws:3',#953,#954,
'92610A247_Torx Alloy Steel Socket Head Screws:3');
#35=NEXT_ASSEMBLY_USAGE_OCCURRENCE(
'92610A247_Torx Alloy Steel Socket Head Screws:4',
'92610A247_Torx Alloy Steel Socket Head Screws:4',
'92610A247_Torx Alloy Steel Socket Head Screws:4',#953,#954,
'92610A247_Torx Alloy Steel Socket Head Screws:4');
#36=NEXT_ASSEMBLY_USAGE_OCCURRENCE('Box:1','Box:1','Box:1',#951,#952,
'Box:1');
#37=NEXT_ASSEMBLY_USAGE_OCCURRENCE('Screws:1','Screws:1','Screws:1',#951,
#953,'Screws:1');
#38=NEXT_ASSEMBLY_USAGE_OCCURRENCE('Lid:1','Lid:1','Lid:1',#951,#955,
'Lid:1');
#39=SHAPE_REPRESENTATION_RELATIONSHIP('SRR','None',#946,#40);
#40=ADVANCED_BREP_SHAPE_REPRESENTATION('',(#42),#919);
#41=STYLED_ITEM('',(#976),#42);
#42=MANIFOLD_SOLID_BREP('Body1',#501);
#43=FACE_BOUND('',#124,.T.);
#44=FACE_BOUND('',#125,.T.);
#45=FACE_BOUND('',#126,.T.);
#46=FACE_BOUND('',#127,.T.);
#47=FACE_BOUND('',#128,.T.);
#48=PLANE('',#554);
#49=PLANE('',#561);
#50=PLANE('',#564);
#51=PLANE('',#565);
#52=PLANE('',#568);
#53=PLANE('',#571);
#54=PLANE('',#575);
#55=PLANE('',#579);
#56=PLANE('',#583);
#57=PLANE('',#587);
#58=PLANE('',#588);
#59=CYLINDRICAL_SURFACE('',#540,1.91135);
#60=CYLINDRICAL_SURFACE('',#544,1.91135);
#61=CYLINDRICAL_SURFACE('',#548,1.91135);
#62=CYLINDRICAL_SURFACE('',#552,1.91135);
#63=CYLINDRICAL_SURFACE('',#559,2.54000000005673);
#64=CYLINDRICAL_SURFACE('',#562,2.54000000025554);
#65=CYLINDRICAL_SURFACE('',#566,2.54000000002858);
#66=CYLINDRICAL_SURFACE('',#569,2.53999999999615);
#67=CYLINDRICAL_SURFACE('',#572,12.7000000000011);
#68=CYLINDRICAL_SURFACE('',#576,12.6999999999989);
#69=CYLINDRICAL_SURFACE('',#580,12.6999999999989);
#70=CYLINDRICAL_SURFACE('',#584,12.6999999999942);
#71=FACE_OUTER_BOUND('',#98,.T.);
#72=FACE_OUTER_BOUND('',#99,.T.);
#73=FACE_OUTER_BOUND('',#100,.T.);
#74=FACE_OUTER_BOUND('',#101,.T.);
#75=FACE_OUTER_BOUND('',#102,.T.);
#76=FACE_OUTER_BOUND('',#103,.T.);
#77=FACE_OUTER_BOUND('',#104,.T.);
#78=FACE_OUTER_BOUND('',#105,.T.);
#79=FACE_OUTER_BOUND('',#106,.T.);
#80=FACE_OUTER_BOUND('',#107,.T.);
#81=FACE_OUTER_BOUND('',#108,.T.);
#82=FACE_OUTER_BOUND('',#109,.T.);
#83=FACE_OUTER_BOUND('',#110,.T.);
#84=FACE_OUTER_BOUND('',#111,.T.);
#85=FACE_OUTER_BOUND('',#112,.T.);
#86=FACE_OUTER_BOUND('',#113,.T.);
#87=FACE_OUTER_BOUND('',#114,.T.);
#88=FACE_OUTER_BOUND('',#115,.T.);
#89=FACE_OUTER_BOUND('',#116,.T.);
#90=FACE_OUTER_BOUND('',#117,.T.);
#91=FACE_OUTER_BOUND('',#118,.T.);
#92=FACE_OUTER_BOUND('',#119,.T.);
#93=FACE_OUTER_BOUND('',#120,.T.);
#94=FACE_OUTER_BOUND('',#121,.T.);
#95=FACE_OUTER_BOUND('',#122,.T.);
#96=FACE_OUTER_BOUND('',#123,.T.);
#97=FACE_OUTER_BOUND('',#129,.T.);
#98=EDGE_LOOP('',(#342,#343,#344));
#99=EDGE_LOOP('',(#345,#346,#347,#348));
#100=EDGE_LOOP('',(#349,#350,#351));
#101=EDGE_LOOP('',(#352,#353,#354,#355));
#102=EDGE_LOOP('',(#356,#357,#358));
#103=EDGE_LOOP('',(#359,#360,#361,#362));
#104=EDGE_LOOP('',(#363,#364,#365));
#105=EDGE_LOOP('',(#366,#367,#368,#369));
#106=EDGE_LOOP('',(#370,#371,#372,#373,#374,#375,#376,#377));
#107=EDGE_LOOP('',(#378,#379,#380,#381));
#108=EDGE_LOOP('',(#382,#383,#384,#385));
#109=EDGE_LOOP('',(#386,#387,#388,#389));
#110=EDGE_LOOP('',(#390,#391,#392,#393));
#111=EDGE_LOOP('',(#394,#395,#396,#397));
#112=EDGE_LOOP('',(#398,#399,#400,#401));
#113=EDGE_LOOP('',(#402,#403,#404,#405));
#114=EDGE_LOOP('',(#406,#407,#408,#409));
#115=EDGE_LOOP('',(#410,#411,#412,#413));
#116=EDGE_LOOP('',(#414,#415,#416,#417));
#117=EDGE_LOOP('',(#418,#419,#420,#421));
#118=EDGE_LOOP('',(#422,#423,#424,#425));
#119=EDGE_LOOP('',(#426,#427,#428,#429));
#120=EDGE_LOOP('',(#430,#431,#432,#433));
#121=EDGE_LOOP('',(#434,#435,#436,#437));
#122=EDGE_LOOP('',(#438,#439,#440,#441));
#123=EDGE_LOOP('',(#442,#443,#444,#445,#446,#447,#448,#449));
#124=EDGE_LOOP('',(#450));
#125=EDGE_LOOP('',(#451));
#126=EDGE_LOOP('',(#452));
#127=EDGE_LOOP('',(#453));
#128=EDGE_LOOP('',(#454,#455,#456,#457,#458,#459,#460,#461));
#129=EDGE_LOOP('',(#462,#463,#464,#465,#466,#467,#468,#469));
#130=LINE('',#771,#170);
#131=LINE('',#775,#171);
#132=LINE('',#780,#172);
#133=LINE('',#784,#173);
#134=LINE('',#789,#174);
#135=LINE('',#793,#175);
#136=LINE('',#798,#176);
#137=LINE('',#802,#177);
#138=LINE('',#808,#178);
#139=LINE('',#812,#179);
#140=LINE('',#816,#180);
#141=LINE('',#819,#181);
#142=LINE('',#822,#182);
#143=LINE('',#825,#183);
#144=LINE('',#828,#184);
#145=LINE('',#829,#185);
#146=LINE('',#832,#186);
#147=LINE('',#836,#187);
#148=LINE('',#837,#188);
#149=LINE('',#840,#189);
#150=LINE('',#841,#190);
#151=LINE('',#845,#191);
#152=LINE('',#848,#192);
#153=LINE('',#849,#193);
#154=LINE('',#855,#194);
#155=LINE('',#857,#195);
#156=LINE('',#859,#196);
#157=LINE('',#860,#197);
#158=LINE('',#866,#198);
#159=LINE('',#869,#199);
#160=LINE('',#871,#200);
#161=LINE('',#872,#201);
#162=LINE('',#878,#202);
#163=LINE('',#881,#203);
#164=LINE('',#883,#204);
#165=LINE('',#884,#205);
#166=LINE('',#890,#206);
#167=LINE('',#893,#207);
#168=LINE('',#895,#208);
#169=LINE('',#896,#209);
#170=VECTOR('',#607,0.95575);
#171=VECTOR('',#612,1.9115);
#172=VECTOR('',#617,0.95575);
#173=VECTOR('',#622,1.9115);
#174=VECTOR('',#627,0.95575);
#175=VECTOR('',#632,1.9115);
#176=VECTOR('',#637,0.95575);
#177=VECTOR('',#642,1.9115);
#178=VECTOR('',#647,10.);
#179=VECTOR('',#650,10.);
#180=VECTOR('',#653,10.);
#181=VECTOR('',#656,10.);
#182=VECTOR('',#659,10.);
#183=VECTOR('',#662,10.);
#184=VECTOR('',#665,10.);
#185=VECTOR('',#666,10.);
#186=VECTOR('',#669,10.);
#187=VECTOR('',#674,10.);
#188=VECTOR('',#675,10.);
#189=VECTOR('',#678,10.);
#190=VECTOR('',#679,10.);
#191=VECTOR('',#684,10.);
#192=VECTOR('',#687,10.);
#193=VECTOR('',#688,10.);
#194=VECTOR('',#695,10.);
#195=VECTOR('',#696,10.);
#196=VECTOR('',#697,10.);
#197=VECTOR('',#698,10.);
#198=VECTOR('',#705,10.);
#199=VECTOR('',#708,10.);
#200=VECTOR('',#709,10.);
#201=VECTOR('',#710,10.);
#202=VECTOR('',#717,10.);
#203=VECTOR('',#720,10.);
#204=VECTOR('',#721,10.);
#205=VECTOR('',#722,10.);
#206=VECTOR('',#729,10.);
#207=VECTOR('',#732,10.);
#208=VECTOR('',#733,10.);
#209=VECTOR('',#734,10.);
#210=CIRCLE('',#539,1.91135);
#211=CIRCLE('',#541,1.91135);
#212=CIRCLE('',#543,1.91135);
#213=CIRCLE('',#545,1.91135);
#214=CIRCLE('',#547,1.91135);
#215=CIRCLE('',#549,1.91135);
#216=CIRCLE('',#551,1.91135);
#217=CIRCLE('',#553,1.91135);
#218=CIRCLE('',#555,2.53999999999615);
#219=CIRCLE('',#556,2.54000000025554);
#220=CIRCLE('',#557,2.54000000005673);
#221=CIRCLE('',#558,2.54000000002858);
#222=CIRCLE('',#560,2.54000000005673);
#223=CIRCLE('',#563,2.54000000025554);
#224=CIRCLE('',#567,2.54000000002858);
#225=CIRCLE('',#570,2.53999999999615);
#226=CIRCLE('',#573,12.7000000000011);
#227=CIRCLE('',#574,12.7000000000011);
#228=CIRCLE('',#577,12.6999999999989);
#229=CIRCLE('',#578,12.6999999999989);
#230=CIRCLE('',#581,12.6999999999989);
#231=CIRCLE('',#582,12.6999999999989);
#232=CIRCLE('',#585,12.6999999999942);
#233=CIRCLE('',#586,12.6999999999942);
#234=VERTEX_POINT('',#768);
#235=VERTEX_POINT('',#770);
#236=VERTEX_POINT('',#773);
#237=VERTEX_POINT('',#777);
#238=VERTEX_POINT('',#779);
#239=VERTEX_POINT('',#782);
#240=VERTEX_POINT('',#786);
#241=VERTEX_POINT('',#788);
#242=VERTEX_POINT('',#791);
#243=VERTEX_POINT('',#795);
#244=VERTEX_POINT('',#797);
#245=VERTEX_POINT('',#800);
#246=VERTEX_POINT('',#804);
#247=VERTEX_POINT('',#805);
#248=VERTEX_POINT('',#807);
#249=VERTEX_POINT('',#809);
#250=VERTEX_POINT('',#811);
#251=VERTEX_POINT('',#813);
#252=VERTEX_POINT('',#815);
#253=VERTEX_POINT('',#817);
#254=VERTEX_POINT('',#821);
#255=VERTEX_POINT('',#823);
#256=VERTEX_POINT('',#827);
#257=VERTEX_POINT('',#831);
#258=VERTEX_POINT('',#835);
#259=VERTEX_POINT('',#839);
#260=VERTEX_POINT('',#843);
#261=VERTEX_POINT('',#847);
#262=VERTEX_POINT('',#853);
#263=VERTEX_POINT('',#854);
#264=VERTEX_POINT('',#856);
#265=VERTEX_POINT('',#858);
#266=VERTEX_POINT('',#862);
#267=VERTEX_POINT('',#864);
#268=VERTEX_POINT('',#868);
#269=VERTEX_POINT('',#870);
#270=VERTEX_POINT('',#874);
#271=VERTEX_POINT('',#876);
#272=VERTEX_POINT('',#880);
#273=VERTEX_POINT('',#882);
#274=VERTEX_POINT('',#886);
#275=VERTEX_POINT('',#888);
#276=VERTEX_POINT('',#892);
#277=VERTEX_POINT('',#894);
#278=EDGE_CURVE('',#234,#234,#210,.T.);
#279=EDGE_CURVE('',#234,#235,#130,.T.);
#280=EDGE_CURVE('',#236,#236,#211,.T.);
#281=EDGE_CURVE('',#236,#234,#131,.T.);
#282=EDGE_CURVE('',#237,#237,#212,.T.);
#283=EDGE_CURVE('',#237,#238,#132,.T.);
#284=EDGE_CURVE('',#239,#239,#213,.T.);
#285=EDGE_CURVE('',#239,#237,#133,.T.);
#286=EDGE_CURVE('',#240,#240,#214,.T.);
#287=EDGE_CURVE('',#240,#241,#134,.T.);
#288=EDGE_CURVE('',#242,#242,#215,.T.);
#289=EDGE_CURVE('',#242,#240,#135,.T.);
#290=EDGE_CURVE('',#243,#243,#216,.T.);
#291=EDGE_CURVE('',#243,#244,#136,.T.);
#292=EDGE_CURVE('',#245,#245,#217,.T.);
#293=EDGE_CURVE('',#245,#243,#137,.T.);
#294=EDGE_CURVE('',#246,#247,#218,.T.);
#295=EDGE_CURVE('',#248,#246,#138,.T.);
#296=EDGE_CURVE('',#249,#248,#219,.T.);
#297=EDGE_CURVE('',#250,#249,#139,.T.);
#298=EDGE_CURVE('',#251,#250,#220,.T.);
#299=EDGE_CURVE('',#252,#251,#140,.T.);
#300=EDGE_CURVE('',#253,#252,#221,.T.);
#301=EDGE_CURVE('',#247,#253,#141,.T.);
#302=EDGE_CURVE('',#250,#254,#142,.T.);
#303=EDGE_CURVE('',#255,#254,#222,.T.);
#304=EDGE_CURVE('',#251,#255,#143,.T.);
#305=EDGE_CURVE('',#249,#256,#144,.T.);
#306=EDGE_CURVE('',#254,#256,#145,.T.);
#307=EDGE_CURVE('',#248,#257,#146,.T.);
#308=EDGE_CURVE('',#256,#257,#223,.T.);
#309=EDGE_CURVE('',#246,#258,#147,.T.);
#310=EDGE_CURVE('',#257,#258,#148,.T.);
#311=EDGE_CURVE('',#259,#255,#149,.T.);
#312=EDGE_CURVE('',#252,#259,#150,.T.);
#313=EDGE_CURVE('',#260,#259,#224,.T.);
#314=EDGE_CURVE('',#253,#260,#151,.T.);
#315=EDGE_CURVE('',#261,#260,#152,.T.);
#316=EDGE_CURVE('',#247,#261,#153,.T.);
#317=EDGE_CURVE('',#258,#261,#225,.T.);
#318=EDGE_CURVE('',#262,#263,#154,.T.);
#319=EDGE_CURVE('',#262,#264,#155,.T.);
#320=EDGE_CURVE('',#265,#264,#156,.T.);
#321=EDGE_CURVE('',#263,#265,#157,.T.);
#322=EDGE_CURVE('',#266,#263,#226,.T.);
#323=EDGE_CURVE('',#267,#265,#227,.T.);
#324=EDGE_CURVE('',#266,#267,#158,.T.);
#325=EDGE_CURVE('',#266,#268,#159,.T.);
#326=EDGE_CURVE('',#269,#267,#160,.T.);
#327=EDGE_CURVE('',#268,#269,#161,.T.);
#328=EDGE_CURVE('',#270,#268,#228,.T.);
#329=EDGE_CURVE('',#271,#269,#229,.T.);
#330=EDGE_CURVE('',#270,#271,#162,.T.);
#331=EDGE_CURVE('',#270,#272,#163,.T.);
#332=EDGE_CURVE('',#273,#271,#164,.T.);
#333=EDGE_CURVE('',#272,#273,#165,.T.);
#334=EDGE_CURVE('',#274,#272,#230,.T.);
#335=EDGE_CURVE('',#275,#273,#231,.T.);
#336=EDGE_CURVE('',#274,#275,#166,.T.);
#337=EDGE_CURVE('',#274,#276,#167,.T.);
#338=EDGE_CURVE('',#277,#275,#168,.T.);
#339=EDGE_CURVE('',#276,#277,#169,.T.);
#340=EDGE_CURVE('',#262,#276,#232,.T.);
#341=EDGE_CURVE('',#264,#277,#233,.T.);
#342=ORIENTED_EDGE('',*,*,#278,.F.);
#343=ORIENTED_EDGE('',*,*,#279,.T.);
#344=ORIENTED_EDGE('',*,*,#279,.F.);
#345=ORIENTED_EDGE('',*,*,#280,.F.);
#346=ORIENTED_EDGE('',*,*,#281,.T.);
#347=ORIENTED_EDGE('',*,*,#278,.T.);
#348=ORIENTED_EDGE('',*,*,#281,.F.);
#349=ORIENTED_EDGE('',*,*,#282,.F.);
#350=ORIENTED_EDGE('',*,*,#283,.T.);
#351=ORIENTED_EDGE('',*,*,#283,.F.);
#352=ORIENTED_EDGE('',*,*,#284,.F.);
#353=ORIENTED_EDGE('',*,*,#285,.T.);
#354=ORIENTED_EDGE('',*,*,#282,.T.);
#355=ORIENTED_EDGE('',*,*,#285,.F.);
#356=ORIENTED_EDGE('',*,*,#286,.F.);
#357=ORIENTED_EDGE('',*,*,#287,.T.);
#358=ORIENTED_EDGE('',*,*,#287,.F.);
#359=ORIENTED_EDGE('',*,*,#288,.F.);
#360=ORIENTED_EDGE('',*,*,#289,.T.);
#361=ORIENTED_EDGE('',*,*,#286,.T.);
#362=ORIENTED_EDGE('',*,*,#289,.F.);
#363=ORIENTED_EDGE('',*,*,#290,.F.);
#364=ORIENTED_EDGE('',*,*,#291,.T.);
#365=ORIENTED_EDGE('',*,*,#291,.F.);
#366=ORIENTED_EDGE('',*,*,#292,.F.);
#367=ORIENTED_EDGE('',*,*,#293,.T.);
#368=ORIENTED_EDGE('',*,*,#290,.T.);
#369=ORIENTED_EDGE('',*,*,#293,.F.);
#370=ORIENTED_EDGE('',*,*,#294,.F.);
#371=ORIENTED_EDGE('',*,*,#295,.F.);
#372=ORIENTED_EDGE('',*,*,#296,.F.);
#373=ORIENTED_EDGE('',*,*,#297,.F.);
#374=ORIENTED_EDGE('',*,*,#298,.F.);
#375=ORIENTED_EDGE('',*,*,#299,.F.);
#376=ORIENTED_EDGE('',*,*,#300,.F.);
#377=ORIENTED_EDGE('',*,*,#301,.F.);
#378=ORIENTED_EDGE('',*,*,#298,.T.);
#379=ORIENTED_EDGE('',*,*,#302,.T.);
#380=ORIENTED_EDGE('',*,*,#303,.F.);
#381=ORIENTED_EDGE('',*,*,#304,.F.);
#382=ORIENTED_EDGE('',*,*,#297,.T.);
#383=ORIENTED_EDGE('',*,*,#305,.T.);
#384=ORIENTED_EDGE('',*,*,#306,.F.);
#385=ORIENTED_EDGE('',*,*,#302,.F.);
#386=ORIENTED_EDGE('',*,*,#296,.T.);
#387=ORIENTED_EDGE('',*,*,#307,.T.);
#388=ORIENTED_EDGE('',*,*,#308,.F.);
#389=ORIENTED_EDGE('',*,*,#305,.F.);
#390=ORIENTED_EDGE('',*,*,#295,.T.);
#391=ORIENTED_EDGE('',*,*,#309,.T.);
#392=ORIENTED_EDGE('',*,*,#310,.F.);
#393=ORIENTED_EDGE('',*,*,#307,.F.);
#394=ORIENTED_EDGE('',*,*,#299,.T.);
#395=ORIENTED_EDGE('',*,*,#304,.T.);
#396=ORIENTED_EDGE('',*,*,#311,.F.);
#397=ORIENTED_EDGE('',*,*,#312,.F.);
#398=ORIENTED_EDGE('',*,*,#300,.T.);
#399=ORIENTED_EDGE('',*,*,#312,.T.);
#400=ORIENTED_EDGE('',*,*,#313,.F.);
#401=ORIENTED_EDGE('',*,*,#314,.F.);
#402=ORIENTED_EDGE('',*,*,#301,.T.);
#403=ORIENTED_EDGE('',*,*,#314,.T.);
#404=ORIENTED_EDGE('',*,*,#315,.F.);
#405=ORIENTED_EDGE('',*,*,#316,.F.);
#406=ORIENTED_EDGE('',*,*,#294,.T.);
#407=ORIENTED_EDGE('',*,*,#316,.T.);
#408=ORIENTED_EDGE('',*,*,#317,.F.);
#409=ORIENTED_EDGE('',*,*,#309,.F.);
#410=ORIENTED_EDGE('',*,*,#318,.F.);
#411=ORIENTED_EDGE('',*,*,#319,.T.);
#412=ORIENTED_EDGE('',*,*,#320,.F.);
#413=ORIENTED_EDGE('',*,*,#321,.F.);
#414=ORIENTED_EDGE('',*,*,#322,.T.);
#415=ORIENTED_EDGE('',*,*,#321,.T.);
#416=ORIENTED_EDGE('',*,*,#323,.F.);
#417=ORIENTED_EDGE('',*,*,#324,.F.);
#418=ORIENTED_EDGE('',*,*,#325,.F.);
#419=ORIENTED_EDGE('',*,*,#324,.T.);
#420=ORIENTED_EDGE('',*,*,#326,.F.);
#421=ORIENTED_EDGE('',*,*,#327,.F.);
#422=ORIENTED_EDGE('',*,*,#328,.T.);
#423=ORIENTED_EDGE('',*,*,#327,.T.);
#424=ORIENTED_EDGE('',*,*,#329,.F.);
#425=ORIENTED_EDGE('',*,*,#330,.F.);
#426=ORIENTED_EDGE('',*,*,#331,.F.);
#427=ORIENTED_EDGE('',*,*,#330,.T.);
#428=ORIENTED_EDGE('',*,*,#332,.F.);
#429=ORIENTED_EDGE('',*,*,#333,.F.);
#430=ORIENTED_EDGE('',*,*,#334,.T.);
#431=ORIENTED_EDGE('',*,*,#333,.T.);
#432=ORIENTED_EDGE('',*,*,#335,.F.);
#433=ORIENTED_EDGE('',*,*,#336,.F.);
#434=ORIENTED_EDGE('',*,*,#337,.F.);
#435=ORIENTED_EDGE('',*,*,#336,.T.);
#436=ORIENTED_EDGE('',*,*,#338,.F.);
#437=ORIENTED_EDGE('',*,*,#339,.F.);
#438=ORIENTED_EDGE('',*,*,#340,.T.);
#439=ORIENTED_EDGE('',*,*,#339,.T.);
#440=ORIENTED_EDGE('',*,*,#341,.F.);
#441=ORIENTED_EDGE('',*,*,#319,.F.);
#442=ORIENTED_EDGE('',*,*,#341,.T.);
#443=ORIENTED_EDGE('',*,*,#338,.T.);
#444=ORIENTED_EDGE('',*,*,#335,.T.);
#445=ORIENTED_EDGE('',*,*,#332,.T.);
#446=ORIENTED_EDGE('',*,*,#329,.T.);
#447=ORIENTED_EDGE('',*,*,#326,.T.);
#448=ORIENTED_EDGE('',*,*,#323,.T.);
#449=ORIENTED_EDGE('',*,*,#320,.T.);
#450=ORIENTED_EDGE('',*,*,#280,.T.);
#451=ORIENTED_EDGE('',*,*,#284,.T.);
#452=ORIENTED_EDGE('',*,*,#288,.T.);
#453=ORIENTED_EDGE('',*,*,#292,.T.);
#454=ORIENTED_EDGE('',*,*,#317,.T.);
#455=ORIENTED_EDGE('',*,*,#315,.T.);
#456=ORIENTED_EDGE('',*,*,#313,.T.);
#457=ORIENTED_EDGE('',*,*,#311,.T.);
#458=ORIENTED_EDGE('',*,*,#303,.T.);
#459=ORIENTED_EDGE('',*,*,#306,.T.);
#460=ORIENTED_EDGE('',*,*,#308,.T.);
#461=ORIENTED_EDGE('',*,*,#310,.T.);
#462=ORIENTED_EDGE('',*,*,#340,.F.);
#463=ORIENTED_EDGE('',*,*,#318,.T.);
#464=ORIENTED_EDGE('',*,*,#322,.F.);
#465=ORIENTED_EDGE('',*,*,#325,.T.);
#466=ORIENTED_EDGE('',*,*,#328,.F.);
#467=ORIENTED_EDGE('',*,*,#331,.T.);
#468=ORIENTED_EDGE('',*,*,#334,.F.);
#469=ORIENTED_EDGE('',*,*,#337,.T.);
#470=CONICAL_SURFACE('',#538,0.955710210367209,1.02974425867665);
#471=CONICAL_SURFACE('',#542,0.955710210367209,1.02974425867665);
#472=CONICAL_SURFACE('',#546,0.955710210367209,1.02974425867665);
#473=CONICAL_SURFACE('',#550,0.955710210367209,1.02974425867665);
#474=ADVANCED_FACE('',(#71),#470,.F.);
#475=ADVANCED_FACE('',(#72),#59,.F.);
#476=ADVANCED_FACE('',(#73),#471,.F.);
#477=ADVANCED_FACE('',(#74),#60,.F.);
#478=ADVANCED_FACE('',(#75),#472,.F.);
#479=ADVANCED_FACE('',(#76),#61,.F.);
#480=ADVANCED_FACE('',(#77),#473,.F.);
#481=ADVANCED_FACE('',(#78),#62,.F.);
#482=ADVANCED_FACE('',(#79),#48,.T.);
#483=ADVANCED_FACE('',(#80),#63,.F.);
#484=ADVANCED_FACE('',(#81),#49,.T.);
#485=ADVANCED_FACE('',(#82),#64,.F.);
#486=ADVANCED_FACE('',(#83),#50,.T.);
#487=ADVANCED_FACE('',(#84),#51,.T.);
#488=ADVANCED_FACE('',(#85),#65,.F.);
#489=ADVANCED_FACE('',(#86),#52,.T.);
#490=ADVANCED_FACE('',(#87),#66,.F.);
#491=ADVANCED_FACE('',(#88),#53,.T.);
#492=ADVANCED_FACE('',(#89),#67,.T.);
#493=ADVANCED_FACE('',(#90),#54,.T.);
#494=ADVANCED_FACE('',(#91),#68,.T.);
#495=ADVANCED_FACE('',(#92),#55,.T.);
#496=ADVANCED_FACE('',(#93),#69,.T.);
#497=ADVANCED_FACE('',(#94),#56,.T.);
#498=ADVANCED_FACE('',(#95),#70,.T.);
#499=ADVANCED_FACE('',(#96,#43,#44,#45,#46,#47),#57,.T.);
#500=ADVANCED_FACE('',(#97),#58,.F.);
#501=CLOSED_SHELL('',(#474,#475,#476,#477,#478,#479,#480,#481,#482,#483,
#484,#485,#486,#487,#488,#489,#490,#491,#492,#493,#494,#495,#496,#497,#498,
#499,#500));
#502=DERIVED_UNIT_ELEMENT(#508,1.);
#503=DERIVED_UNIT_ELEMENT(#925,-3.);
#504=DERIVED_UNIT_ELEMENT(#508,1.);
#505=DERIVED_UNIT_ELEMENT(#925,-3.);
#506=DERIVED_UNIT_ELEMENT(#508,1.);
#507=DERIVED_UNIT_ELEMENT(#925,-3.);
#508=(
MASS_UNIT()
NAMED_UNIT(*)
SI_UNIT(.KILO.,.GRAM.)
);
#509=DERIVED_UNIT((#502,#503));
#510=DERIVED_UNIT((#504,#505));
#511=DERIVED_UNIT((#506,#507));
#512=MEASURE_REPRESENTATION_ITEM('density measure',
POSITIVE_RATIO_MEASURE(7850.),#509);
#513=MEASURE_REPRESENTATION_ITEM('density measure',
POSITIVE_RATIO_MEASURE(7850.),#510);
#514=MEASURE_REPRESENTATION_ITEM('density measure',
POSITIVE_RATIO_MEASURE(7850.),#511);
#515=PROPERTY_DEFINITION_REPRESENTATION(#530,#521);
#516=PROPERTY_DEFINITION_REPRESENTATION(#531,#522);
#517=PROPERTY_DEFINITION_REPRESENTATION(#532,#523);
#518=PROPERTY_DEFINITION_REPRESENTATION(#533,#524);
#519=PROPERTY_DEFINITION_REPRESENTATION(#534,#525);
#520=PROPERTY_DEFINITION_REPRESENTATION(#535,#526);
#521=REPRESENTATION('material name',(#527),#919);
#522=REPRESENTATION('density',(#512),#919);
#523=REPRESENTATION('material name',(#528),#921);
#524=REPRESENTATION('density',(#513),#921);
#525=REPRESENTATION('material name',(#529),#922);
#526=REPRESENTATION('density',(#514),#922);
#527=DESCRIPTIVE_REPRESENTATION_ITEM('Steel','Steel');
#528=DESCRIPTIVE_REPRESENTATION_ITEM('Steel','Steel');
#529=DESCRIPTIVE_REPRESENTATION_ITEM('Steel','Steel');
#530=PROPERTY_DEFINITION('material property','material name',#952);
#531=PROPERTY_DEFINITION('material property','density of part',#952);
#532=PROPERTY_DEFINITION('material property','material name',#954);
#533=PROPERTY_DEFINITION('material property','density of part',#954);
#534=PROPERTY_DEFINITION('material property','material name',#955);
#535=PROPERTY_DEFINITION('material property','density of part',#955);
#536=AXIS2_PLACEMENT_3D('',#765,#599,#600);
#537=AXIS2_PLACEMENT_3D('',#766,#601,#602);
#538=AXIS2_PLACEMENT_3D('',#767,#603,#604);
#539=AXIS2_PLACEMENT_3D('',#769,#605,#606);
#540=AXIS2_PLACEMENT_3D('',#772,#608,#609);
#541=AXIS2_PLACEMENT_3D('',#774,#610,#611);
#542=AXIS2_PLACEMENT_3D('',#776,#613,#614);
#543=AXIS2_PLACEMENT_3D('',#778,#615,#616);
#544=AXIS2_PLACEMENT_3D('',#781,#618,#619);
#545=AXIS2_PLACEMENT_3D('',#783,#620,#621);
#546=AXIS2_PLACEMENT_3D('',#785,#623,#624);
#547=AXIS2_PLACEMENT_3D('',#787,#625,#626);
#548=AXIS2_PLACEMENT_3D('',#790,#628,#629);
#549=AXIS2_PLACEMENT_3D('',#792,#630,#631);
#550=AXIS2_PLACEMENT_3D('',#794,#633,#634);
#551=AXIS2_PLACEMENT_3D('',#796,#635,#636);
#552=AXIS2_PLACEMENT_3D('',#799,#638,#639);
#553=AXIS2_PLACEMENT_3D('',#801,#640,#641);
#554=AXIS2_PLACEMENT_3D('',#803,#643,#644);
#555=AXIS2_PLACEMENT_3D('',#806,#645,#646);
#556=AXIS2_PLACEMENT_3D('',#810,#648,#649);
#557=AXIS2_PLACEMENT_3D('',#814,#651,#652);
#558=AXIS2_PLACEMENT_3D('',#818,#654,#655);
#559=AXIS2_PLACEMENT_3D('',#820,#657,#658);
#560=AXIS2_PLACEMENT_3D('',#824,#660,#661);
#561=AXIS2_PLACEMENT_3D('',#826,#663,#664);
#562=AXIS2_PLACEMENT_3D('',#830,#667,#668);
#563=AXIS2_PLACEMENT_3D('',#833,#670,#671);
#564=AXIS2_PLACEMENT_3D('',#834,#672,#673);
#565=AXIS2_PLACEMENT_3D('',#838,#676,#677);
#566=AXIS2_PLACEMENT_3D('',#842,#680,#681);
#567=AXIS2_PLACEMENT_3D('',#844,#682,#683);
#568=AXIS2_PLACEMENT_3D('',#846,#685,#686);
#569=AXIS2_PLACEMENT_3D('',#850,#689,#690);
#570=AXIS2_PLACEMENT_3D('',#851,#691,#692);
#571=AXIS2_PLACEMENT_3D('',#852,#693,#694);
#572=AXIS2_PLACEMENT_3D('',#861,#699,#700);
#573=AXIS2_PLACEMENT_3D('',#863,#701,#702);
#574=AXIS2_PLACEMENT_3D('',#865,#703,#704);
#575=AXIS2_PLACEMENT_3D('',#867,#706,#707);
#576=AXIS2_PLACEMENT_3D('',#873,#711,#712);
#577=AXIS2_PLACEMENT_3D('',#875,#713,#714);
#578=AXIS2_PLACEMENT_3D('',#877,#715,#716);
#579=AXIS2_PLACEMENT_3D('',#879,#718,#719);
#580=AXIS2_PLACEMENT_3D('',#885,#723,#724);
#581=AXIS2_PLACEMENT_3D('',#887,#725,#726);
#582=AXIS2_PLACEMENT_3D('',#889,#727,#728);
#583=AXIS2_PLACEMENT_3D('',#891,#730,#731);
#584=AXIS2_PLACEMENT_3D('',#897,#735,#736);
#585=AXIS2_PLACEMENT_3D('',#898,#737,#738);
#586=AXIS2_PLACEMENT_3D('',#899,#739,#740);
#587=AXIS2_PLACEMENT_3D('',#900,#741,#742);
#588=AXIS2_PLACEMENT_3D('',#901,#743,#744);
#589=AXIS2_PLACEMENT_3D('',#902,#745,#746);
#590=AXIS2_PLACEMENT_3D('',#903,#747,#748);
#591=AXIS2_PLACEMENT_3D('',#904,#749,#750);
#592=AXIS2_PLACEMENT_3D('',#905,#751,#752);
#593=AXIS2_PLACEMENT_3D('',#906,#753,#754);
#594=AXIS2_PLACEMENT_3D('',#907,#755,#756);
#595=AXIS2_PLACEMENT_3D('',#908,#757,#758);
#596=AXIS2_PLACEMENT_3D('',#909,#759,#760);
#597=AXIS2_PLACEMENT_3D('',#910,#761,#762);
#598=AXIS2_PLACEMENT_3D('',#911,#763,#764);
#599=DIRECTION('axis',(0.,0.,1.));
#600=DIRECTION('refdir',(1.,0.,0.));
#601=DIRECTION('axis',(0.,0.,1.));
#602=DIRECTION('refdir',(1.,0.,0.));
#603=DIRECTION('center_axis',(0.,0.,1.));
#604=DIRECTION('ref_axis',(1.,0.,0.));
#605=DIRECTION('center_axis',(0.,0.,-1.));
#606=DIRECTION('ref_axis',(1.,0.,0.));
#607=DIRECTION('',(0.857167300702112,-1.04972719113862E-16,-0.515038074910054));
#608=DIRECTION('center_axis',(0.,0.,-1.));
#609=DIRECTION('ref_axis',(1.,0.,0.));
#610=DIRECTION('center_axis',(0.,0.,-1.));
#611=DIRECTION('ref_axis',(1.,0.,0.));
#612=DIRECTION('',(0.,0.,-1.));
#613=DIRECTION('center_axis',(0.,0.,1.));
#614=DIRECTION('ref_axis',(1.,0.,0.));
#615=DIRECTION('center_axis',(0.,0.,-1.));
#616=DIRECTION('ref_axis',(1.,0.,0.));
#617=DIRECTION('',(0.857167300702112,-1.04972719113862E-16,-0.515038074910054));
#618=DIRECTION('center_axis',(0.,0.,-1.));
#619=DIRECTION('ref_axis',(1.,0.,0.));
#620=DIRECTION('center_axis',(0.,0.,-1.));
#621=DIRECTION('ref_axis',(1.,0.,0.));
#622=DIRECTION('',(0.,0.,-1.));
#623=DIRECTION('center_axis',(0.,0.,1.));
#624=DIRECTION('ref_axis',(1.,0.,0.));
#625=DIRECTION('center_axis',(0.,0.,-1.));
#626=DIRECTION('ref_axis',(1.,0.,0.));
#627=DIRECTION('',(0.857167300702112,-1.04972719113862E-16,-0.515038074910054));
#628=DIRECTION('center_axis',(0.,0.,-1.));
#629=DIRECTION('ref_axis',(1.,0.,0.));
#630=DIRECTION('center_axis',(0.,0.,-1.));
#631=DIRECTION('ref_axis',(1.,0.,0.));
#632=DIRECTION('',(0.,0.,-1.));
#633=DIRECTION('center_axis',(0.,0.,1.));
#634=DIRECTION('ref_axis',(1.,0.,0.));
#635=DIRECTION('center_axis',(0.,0.,-1.));
#636=DIRECTION('ref_axis',(1.,0.,0.));
#637=DIRECTION('',(0.857167300702112,-1.04972719113862E-16,-0.515038074910054));
#638=DIRECTION('center_axis',(0.,0.,-1.));
#639=DIRECTION('ref_axis',(1.,0.,0.));
#640=DIRECTION('center_axis',(0.,0.,-1.));
#641=DIRECTION('ref_axis',(1.,0.,0.));
#642=DIRECTION('',(0.,0.,-1.));
#643=DIRECTION('center_axis',(0.,0.,1.));
#644=DIRECTION('ref_axis',(1.,0.,0.));
#645=DIRECTION('center_axis',(0.,0.,-1.));
#646=DIRECTION('ref_axis',(-1.2328934234003E-6,0.99999999999924,0.));
#647=DIRECTION('',(0.,1.,0.));
#648=DIRECTION('center_axis',(0.,0.,-1.));
#649=DIRECTION('ref_axis',(-0.999999999889042,-1.48968462397542E-5,0.));
#650=DIRECTION('',(-1.,7.01323885320182E-13,0.));
#651=DIRECTION('center_axis',(0.,0.,-1.));
#652=DIRECTION('ref_axis',(6.7388031251651E-6,-0.999999999977294,0.));
#653=DIRECTION('',(9.21397627631394E-14,-1.,0.));
#654=DIRECTION('center_axis',(0.,0.,-1.));
#655=DIRECTION('ref_axis',(0.999999999987334,5.03312148908132E-6,0.));
#656=DIRECTION('',(1.,-4.67549282998759E-13,0.));
#657=DIRECTION('center_axis',(0.,0.,1.));
#658=DIRECTION('ref_axis',(6.7388031251651E-6,-0.999999999977294,0.));
#659=DIRECTION('',(0.,0.,1.));
#660=DIRECTION('center_axis',(0.,0.,-1.));
#661=DIRECTION('ref_axis',(6.7388031251651E-6,-0.999999999977294,0.));
#662=DIRECTION('',(0.,0.,1.));
#663=DIRECTION('center_axis',(7.01323885320182E-13,1.,0.));
#664=DIRECTION('ref_axis',(-1.,7.01323885320182E-13,0.));
#665=DIRECTION('',(0.,0.,1.));
#666=DIRECTION('',(-1.,7.01323885320182E-13,0.));
#667=DIRECTION('center_axis',(0.,0.,1.));
#668=DIRECTION('ref_axis',(-0.999999999889042,-1.48968462397542E-5,0.));
#669=DIRECTION('',(0.,0.,1.));
#670=DIRECTION('center_axis',(0.,0.,-1.));
#671=DIRECTION('ref_axis',(-0.999999999889042,-1.48968462397542E-5,0.));
#672=DIRECTION('center_axis',(1.,0.,0.));
#673=DIRECTION('ref_axis',(0.,1.,0.));
#674=DIRECTION('',(0.,0.,1.));
#675=DIRECTION('',(0.,1.,0.));
#676=DIRECTION('center_axis',(-1.,-9.21397627631394E-14,0.));
#677=DIRECTION('ref_axis',(9.21397627631394E-14,-1.,0.));
#678=DIRECTION('',(9.21397627631394E-14,-1.,0.));
#679=DIRECTION('',(0.,0.,1.));
#680=DIRECTION('center_axis',(0.,0.,1.));
#681=DIRECTION('ref_axis',(0.999999999987334,5.03312148908132E-6,0.));
#682=DIRECTION('center_axis',(0.,0.,-1.));
#683=DIRECTION('ref_axis',(0.999999999987334,5.03312148908132E-6,0.));
#684=DIRECTION('',(0.,0.,1.));
#685=DIRECTION('center_axis',(-4.67549282998759E-13,-1.,0.));
#686=DIRECTION('ref_axis',(1.,-4.67549282998759E-13,0.));
#687=DIRECTION('',(1.,-4.67549282998759E-13,0.));
#688=DIRECTION('',(0.,0.,1.));
#689=DIRECTION('center_axis',(0.,0.,1.));
#690=DIRECTION('ref_axis',(-1.2328934234003E-6,0.99999999999924,0.));
#691=DIRECTION('center_axis',(0.,0.,-1.));
#692=DIRECTION('ref_axis',(-1.2328934234003E-6,0.99999999999924,0.));
#693=DIRECTION('center_axis',(0.,1.,0.));
#694=DIRECTION('ref_axis',(-1.,0.,0.));
#695=DIRECTION('',(1.,0.,0.));
#696=DIRECTION('',(0.,0.,1.));
#697=DIRECTION('',(-1.,0.,0.));
#698=DIRECTION('',(0.,0.,1.));
#699=DIRECTION('center_axis',(0.,0.,1.));
#700=DIRECTION('ref_axis',(1.,2.09805925913397E-14,0.));
#701=DIRECTION('center_axis',(0.,0.,1.));
#702=DIRECTION('ref_axis',(1.,2.09805925913397E-14,0.));
#703=DIRECTION('center_axis',(0.,0.,1.));
#704=DIRECTION('ref_axis',(1.,2.09805925913397E-14,0.));
#705=DIRECTION('',(0.,0.,1.));
#706=DIRECTION('center_axis',(1.,5.24514814783536E-16,0.));
#707=DIRECTION('ref_axis',(-5.24514814783536E-16,1.,0.));
#708=DIRECTION('',(5.24514814783536E-16,-1.,0.));
#709=DIRECTION('',(-5.24514814783536E-16,1.,0.));
#710=DIRECTION('',(0.,0.,1.));
#711=DIRECTION('center_axis',(0.,0.,1.));
#712=DIRECTION('ref_axis',(2.79741234551244E-15,-1.,0.));
#713=DIRECTION('center_axis',(0.,0.,1.));
#714=DIRECTION('ref_axis',(2.79741234551244E-15,-1.,0.));
#715=DIRECTION('center_axis',(0.,0.,1.));
#716=DIRECTION('ref_axis',(2.79741234551244E-15,-1.,0.));
#717=DIRECTION('',(0.,0.,1.));
#718=DIRECTION('center_axis',(0.,-1.,0.));
#719=DIRECTION('ref_axis',(1.,0.,0.));
#720=DIRECTION('',(-1.,0.,0.));
#721=DIRECTION('',(1.,0.,0.));
#722=DIRECTION('',(0.,0.,1.));
#723=DIRECTION('center_axis',(0.,0.,1.));
#724=DIRECTION('ref_axis',(-1.,-3.73034936274084E-12,0.));
#725=DIRECTION('center_axis',(0.,0.,1.));
#726=DIRECTION('ref_axis',(-1.,-3.73034936274084E-12,0.));
#727=DIRECTION('center_axis',(0.,0.,1.));
#728=DIRECTION('ref_axis',(-1.,-3.73034936274084E-12,0.));
#729=DIRECTION('',(0.,0.,1.));
#730=DIRECTION('center_axis',(-1.,0.,0.));
#731=DIRECTION('ref_axis',(0.,-1.,0.));
#732=DIRECTION('',(0.,1.,0.));
#733=DIRECTION('',(0.,-1.,0.));
#734=DIRECTION('',(0.,0.,1.));
#735=DIRECTION('center_axis',(0.,0.,1.));
#736=DIRECTION('ref_axis',(0.,1.,0.));
#737=DIRECTION('center_axis',(0.,0.,1.));
#738=DIRECTION('ref_axis',(0.,1.,0.));
#739=DIRECTION('center_axis',(0.,0.,1.));
#740=DIRECTION('ref_axis',(0.,1.,0.));
#741=DIRECTION('center_axis',(0.,0.,1.));
#742=DIRECTION('ref_axis',(1.,0.,0.));
#743=DIRECTION('center_axis',(0.,0.,1.));
#744=DIRECTION('ref_axis',(1.,0.,0.));
#745=DIRECTION('axis',(0.,0.,1.));
#746=DIRECTION('refdir',(1.,0.,0.));
#747=DIRECTION('axis',(0.,0.,1.));
#748=DIRECTION('refdir',(1.,0.,0.));
#749=DIRECTION('',(-1.43491602734007E-17,6.16297582203918E-33,-0.999999999999999));
#750=DIRECTION('',(1.,-3.50324616081205E-46,3.46944695195538E-18));
#751=DIRECTION('',(1.99970433832996E-15,1.58849925480978E-16,-0.999999999999996));
#752=DIRECTION('',(1.,4.93038065763144E-32,-1.38430933382949E-15));
#753=DIRECTION('',(1.93590426194356E-14,1.58849925480978E-16,-0.999999999999998));
#754=DIRECTION('',(1.,-1.40129846432482E-45,1.93768612266609E-14));
#755=DIRECTION('',(-1.98318301498324E-14,1.58849925480978E-16,-0.999999999999999));
#756=DIRECTION('',(1.,-7.00649232162409E-46,-1.98140115426071E-14));
#757=DIRECTION('axis',(0.,0.,1.));
#758=DIRECTION('refdir',(1.,0.,0.));
#759=DIRECTION('',(0.,0.,1.));
#760=DIRECTION('',(1.,0.,0.));
#761=DIRECTION('',(0.,0.,1.));
#762=DIRECTION('',(1.,0.,0.));
#763=DIRECTION('',(2.76101316827354E-30,-6.5341660417542E-60,0.999999999999999));
#764=DIRECTION('',(1.,0.,1.77493703674728E-30));
#765=CARTESIAN_POINT('',(0.,0.,0.));
#766=CARTESIAN_POINT('',(0.,0.,0.));
#767=CARTESIAN_POINT('Origin',(144.78,-106.68,24.8257936844339));
#768=CARTESIAN_POINT('',(142.86865,-106.68,25.4));
#769=CARTESIAN_POINT('Origin',(144.78,-106.68,25.4));
#770=CARTESIAN_POINT('',(144.78,-106.68,24.2515450558217));
#771=CARTESIAN_POINT('',(143.824289789633,-106.68,24.8257936844339));
#772=CARTESIAN_POINT('Origin',(144.78,-106.68,38.1));
#773=CARTESIAN_POINT('',(142.86865,-106.68,50.8));
#774=CARTESIAN_POINT('Origin',(144.78,-106.68,50.8));
#775=CARTESIAN_POINT('',(142.86865,-106.68,38.1));
#776=CARTESIAN_POINT('Origin',(-144.78,106.68,24.8257936844339));
#777=CARTESIAN_POINT('',(-146.69135,106.68,25.4));
#778=CARTESIAN_POINT('Origin',(-144.78,106.68,25.4));
#779=CARTESIAN_POINT('',(-144.78,106.68,24.2515450558217));
#780=CARTESIAN_POINT('',(-145.735710210367,106.68,24.8257936844339));
#781=CARTESIAN_POINT('Origin',(-144.78,106.68,38.1));
#782=CARTESIAN_POINT('',(-146.69135,106.68,50.8));
#783=CARTESIAN_POINT('Origin',(-144.78,106.68,50.8));
#784=CARTESIAN_POINT('',(-146.69135,106.68,38.1));
#785=CARTESIAN_POINT('Origin',(144.78,106.68,24.8257936844339));
#786=CARTESIAN_POINT('',(142.86865,106.68,25.4));
#787=CARTESIAN_POINT('Origin',(144.78,106.68,25.4));
#788=CARTESIAN_POINT('',(144.78,106.68,24.2515450558217));
#789=CARTESIAN_POINT('',(143.824289789633,106.68,24.8257936844339));
#790=CARTESIAN_POINT('Origin',(144.78,106.68,38.1));
#791=CARTESIAN_POINT('',(142.86865,106.68,50.8));
#792=CARTESIAN_POINT('Origin',(144.78,106.68,50.8));
#793=CARTESIAN_POINT('',(142.86865,106.68,38.1));
#794=CARTESIAN_POINT('Origin',(-144.78,-106.68,24.8257936844339));
#795=CARTESIAN_POINT('',(-146.69135,-106.68,25.4));
#796=CARTESIAN_POINT('Origin',(-144.78,-106.68,25.4));
#797=CARTESIAN_POINT('',(-144.78,-106.68,24.2515450558217));
#798=CARTESIAN_POINT('',(-145.735710210367,-106.68,24.8257936844339));
#799=CARTESIAN_POINT('Origin',(-144.78,-106.68,38.1));
#800=CARTESIAN_POINT('',(-146.69135,-106.68,50.8));
#801=CARTESIAN_POINT('Origin',(-144.78,-106.68,50.8));
#802=CARTESIAN_POINT('',(-146.69135,-106.68,38.1));
#803=CARTESIAN_POINT('Origin',(9.40403310778493E-11,-4.58655335933145E-11,
10.16));
#804=CARTESIAN_POINT('',(-142.239999999869,101.600031866188,10.16));
#805=CARTESIAN_POINT('',(-139.700003131529,104.139999999997,10.16));
#806=CARTESIAN_POINT('Origin',(-139.69999999998,101.600000000003,10.16));
#807=CARTESIAN_POINT('',(-142.239999999869,-101.600037837944,10.16));
#808=CARTESIAN_POINT('',(-142.239999999869,-50.800018918995,10.16));
#809=CARTESIAN_POINT('',(-139.700024798143,-104.139999999863,10.16));
#810=CARTESIAN_POINT('Origin',(-139.699999999895,-101.599999999955,10.16));
#811=CARTESIAN_POINT('',(139.700017116561,-104.140000000059,10.16));
#812=CARTESIAN_POINT('',(69.8500085582908,-104.14000000001,10.16));
#813=CARTESIAN_POINT('',(142.240000000015,-101.600001257681,10.16));
#814=CARTESIAN_POINT('Origin',(139.700000000001,-101.60000000006,10.16));
#815=CARTESIAN_POINT('',(142.239999999996,101.600012784126,10.16));
#816=CARTESIAN_POINT('',(142.240000000001,50.8000063920465,10.16));
#817=CARTESIAN_POINT('',(139.70002317509,104.139999999867,10.16));
#818=CARTESIAN_POINT('Origin',(139.7,101.599999999997,10.16));
#819=CARTESIAN_POINT('',(-69.8500015656932,104.139999999965,10.16));
#820=CARTESIAN_POINT('Origin',(139.700000000001,-101.60000000006,0.));
#821=CARTESIAN_POINT('',(139.700017116561,-104.140000000059,50.8));
#822=CARTESIAN_POINT('',(139.700017116561,-104.140000000059,0.));
#823=CARTESIAN_POINT('',(142.240000000015,-101.600001257681,50.8));
#824=CARTESIAN_POINT('Origin',(139.700000000001,-101.60000000006,50.8));
#825=CARTESIAN_POINT('',(142.240000000015,-101.600001257681,0.));
#826=CARTESIAN_POINT('Origin',(139.700017116561,-104.140000000059,0.));
#827=CARTESIAN_POINT('',(-139.700024798143,-104.139999999863,50.8));
#828=CARTESIAN_POINT('',(-139.700024798143,-104.139999999863,0.));
#829=CARTESIAN_POINT('',(139.700017116561,-104.140000000059,50.8));
#830=CARTESIAN_POINT('Origin',(-139.699999999895,-101.599999999955,0.));
#831=CARTESIAN_POINT('',(-142.239999999869,-101.600037837944,50.8));
#832=CARTESIAN_POINT('',(-142.239999999869,-101.600037837944,0.));
#833=CARTESIAN_POINT('Origin',(-139.699999999895,-101.599999999955,50.8));
#834=CARTESIAN_POINT('Origin',(-142.239999999869,-101.600037837944,0.));
#835=CARTESIAN_POINT('',(-142.239999999869,101.600031866188,50.8));
#836=CARTESIAN_POINT('',(-142.239999999869,101.600031866188,0.));
#837=CARTESIAN_POINT('',(-142.239999999869,-101.600037837944,50.8));
#838=CARTESIAN_POINT('Origin',(142.239999999996,101.600012784126,0.));
#839=CARTESIAN_POINT('',(142.239999999996,101.600012784126,50.8));
#840=CARTESIAN_POINT('',(142.239999999996,101.600012784126,50.8));
#841=CARTESIAN_POINT('',(142.239999999996,101.600012784126,0.));
#842=CARTESIAN_POINT('Origin',(139.7,101.599999999997,0.));
#843=CARTESIAN_POINT('',(139.700023175091,104.139999999867,50.8));
#844=CARTESIAN_POINT('Origin',(139.7,101.599999999997,50.8));
#845=CARTESIAN_POINT('',(139.70002317509,104.139999999867,0.));
#846=CARTESIAN_POINT('Origin',(-139.700003131529,104.139999999997,0.));
#847=CARTESIAN_POINT('',(-139.700003131529,104.139999999997,50.8));
#848=CARTESIAN_POINT('',(-139.700003131529,104.139999999997,50.8));
#849=CARTESIAN_POINT('',(-139.700003131529,104.139999999997,0.));
#850=CARTESIAN_POINT('Origin',(-139.69999999998,101.600000000003,0.));
#851=CARTESIAN_POINT('Origin',(-139.69999999998,101.600000000003,50.8));
#852=CARTESIAN_POINT('Origin',(139.699999999999,114.299999999997,0.));
#853=CARTESIAN_POINT('',(-139.69999999998,114.299999999997,0.));
#854=CARTESIAN_POINT('',(139.699999999999,114.299999999998,0.));
#855=CARTESIAN_POINT('',(-139.69999999998,114.299999999997,0.));
#856=CARTESIAN_POINT('',(-139.69999999998,114.299999999997,50.8));
#857=CARTESIAN_POINT('',(-139.69999999998,114.299999999997,0.));
#858=CARTESIAN_POINT('',(139.699999999999,114.299999999998,50.8));
#859=CARTESIAN_POINT('',(-139.69999999998,114.299999999997,50.8));
#860=CARTESIAN_POINT('',(139.699999999999,114.299999999998,0.));
#861=CARTESIAN_POINT('Origin',(139.699999999999,101.599999999997,0.));
#862=CARTESIAN_POINT('',(152.4,101.599999999998,0.));
#863=CARTESIAN_POINT('Origin',(139.699999999999,101.599999999997,0.));
#864=CARTESIAN_POINT('',(152.4,101.599999999998,50.8));
#865=CARTESIAN_POINT('Origin',(139.699999999999,101.599999999997,50.8));
#866=CARTESIAN_POINT('',(152.4,101.599999999998,0.));
#867=CARTESIAN_POINT('Origin',(152.4,-101.600000000004,0.));
#868=CARTESIAN_POINT('',(152.399999999999,-101.600000000004,0.));
#869=CARTESIAN_POINT('',(152.4,101.599999999998,0.));
#870=CARTESIAN_POINT('',(152.399999999999,-101.600000000004,50.8));
#871=CARTESIAN_POINT('',(152.4,101.599999999998,50.8));
#872=CARTESIAN_POINT('',(152.399999999999,-101.600000000004,0.));
#873=CARTESIAN_POINT('Origin',(139.700000000001,-101.600000000003,0.));
#874=CARTESIAN_POINT('',(139.700000000001,-114.300000000002,0.));
#875=CARTESIAN_POINT('Origin',(139.700000000001,-101.600000000003,0.));
#876=CARTESIAN_POINT('',(139.700000000001,-114.300000000002,50.8));
#877=CARTESIAN_POINT('Origin',(139.700000000001,-101.600000000003,50.8));
#878=CARTESIAN_POINT('',(139.700000000001,-114.300000000002,0.));
#879=CARTESIAN_POINT('Origin',(-139.700000000004,-114.300000000002,0.));
#880=CARTESIAN_POINT('',(-139.700000000004,-114.299999999906,0.));
#881=CARTESIAN_POINT('',(139.700000000001,-114.300000000002,0.));
#882=CARTESIAN_POINT('',(-139.700000000004,-114.299999999906,50.8));
#883=CARTESIAN_POINT('',(139.700000000001,-114.300000000002,50.8));
#884=CARTESIAN_POINT('',(-139.700000000004,-114.299999999906,0.));
#885=CARTESIAN_POINT('Origin',(-139.700000000004,-101.599999999907,0.));
#886=CARTESIAN_POINT('',(-152.400000000003,-101.599999999954,0.));
#887=CARTESIAN_POINT('Origin',(-139.700000000004,-101.599999999907,0.));
#888=CARTESIAN_POINT('',(-152.400000000003,-101.599999999954,50.8));
#889=CARTESIAN_POINT('Origin',(-139.700000000004,-101.599999999907,50.8));
#890=CARTESIAN_POINT('',(-152.400000000003,-101.599999999954,0.));
#891=CARTESIAN_POINT('Origin',(-152.400000000003,101.600000000003,0.));
#892=CARTESIAN_POINT('',(-152.399999999974,101.600000000003,0.));
#893=CARTESIAN_POINT('',(-152.400000000003,-101.599999999954,0.));
#894=CARTESIAN_POINT('',(-152.399999999974,101.600000000003,50.8));
#895=CARTESIAN_POINT('',(-152.400000000003,-101.599999999954,50.8));
#896=CARTESIAN_POINT('',(-152.399999999974,101.600000000003,0.));
#897=CARTESIAN_POINT('Origin',(-139.69999999998,101.600000000003,0.));
#898=CARTESIAN_POINT('Origin',(-139.69999999998,101.600000000003,0.));
#899=CARTESIAN_POINT('Origin',(-139.69999999998,101.600000000003,50.8));
#900=CARTESIAN_POINT('Origin',(-1.49213974509621E-12,-1.98951966012828E-12,
50.8));
#901=CARTESIAN_POINT('Origin',(-1.49213974509621E-12,-1.98951966012828E-12,
0.));
#902=CARTESIAN_POINT('',(0.,0.,0.));
#903=CARTESIAN_POINT('',(0.,0.,0.));
#904=CARTESIAN_POINT('',(144.486248662911,-106.973751336956,47.8479999999999));
#905=CARTESIAN_POINT('',(-144.780000000096,-106.679999999956,47.7575125));
#906=CARTESIAN_POINT('',(144.779999999905,106.680000000044,47.7575125));
#907=CARTESIAN_POINT('',(-144.780000000096,106.680000000044,47.848));
#908=CARTESIAN_POINT('',(0.,0.,0.));
#909=CARTESIAN_POINT('',(0.,0.,0.));
#910=CARTESIAN_POINT('',(0.,0.,0.));
#911=CARTESIAN_POINT('',(-9.55679979597335E-11,4.38760139331861E-11,3.17500000000004));
#912=UNCERTAINTY_MEASURE_WITH_UNIT(LENGTH_MEASURE(0.01),#924,
'DISTANCE_ACCURACY_VALUE',
'Maximum model space distance between geometric entities at asserted c
onnectivities');
#913=UNCERTAINTY_MEASURE_WITH_UNIT(LENGTH_MEASURE(0.01),#924,
'DISTANCE_ACCURACY_VALUE',
'Maximum model space distance between geometric entities at asserted c
onnectivities');
#914=UNCERTAINTY_MEASURE_WITH_UNIT(LENGTH_MEASURE(0.01),#924,
'DISTANCE_ACCURACY_VALUE',
'Maximum model space distance between geometric entities at asserted c
onnectivities');
#915=UNCERTAINTY_MEASURE_WITH_UNIT(LENGTH_MEASURE(0.01),#924,
'DISTANCE_ACCURACY_VALUE',
'Maximum model space distance between geometric entities at asserted c
onnectivities');
#916=UNCERTAINTY_MEASURE_WITH_UNIT(LENGTH_MEASURE(0.01),#924,
'DISTANCE_ACCURACY_VALUE',
'Maximum model space distance between geometric entities at asserted c
onnectivities');
#917=UNCERTAINTY_MEASURE_WITH_UNIT(LENGTH_MEASURE(0.01),#924,
'DISTANCE_ACCURACY_VALUE',
'Maximum model space distance between geometric entities at asserted c
onnectivities');
#918=(
GEOMETRIC_REPRESENTATION_CONTEXT(3)
GLOBAL_UNCERTAINTY_ASSIGNED_CONTEXT((#912))
GLOBAL_UNIT_ASSIGNED_CONTEXT((#924,#926,#927))
REPRESENTATION_CONTEXT('','3D')
);
#919=(
GEOMETRIC_REPRESENTATION_CONTEXT(3)
GLOBAL_UNCERTAINTY_ASSIGNED_CONTEXT((#913))
GLOBAL_UNIT_ASSIGNED_CONTEXT((#924,#926,#927))
REPRESENTATION_CONTEXT('','3D')
);
#920=(
GEOMETRIC_REPRESENTATION_CONTEXT(3)
GLOBAL_UNCERTAINTY_ASSIGNED_CONTEXT((#914))
GLOBAL_UNIT_ASSIGNED_CONTEXT((#924,#926,#927))
REPRESENTATION_CONTEXT('','3D')
);
#921=(
GEOMETRIC_REPRESENTATION_CONTEXT(3)
GLOBAL_UNCERTAINTY_ASSIGNED_CONTEXT((#915))
GLOBAL_UNIT_ASSIGNED_CONTEXT((#924,#926,#927))
REPRESENTATION_CONTEXT('','3D')
);
#922=(
GEOMETRIC_REPRESENTATION_CONTEXT(3)
GLOBAL_UNCERTAINTY_ASSIGNED_CONTEXT((#916))
GLOBAL_UNIT_ASSIGNED_CONTEXT((#924,#926,#927))
REPRESENTATION_CONTEXT('','3D')
);
#923=(
GEOMETRIC_REPRESENTATION_CONTEXT(3)
GLOBAL_UNCERTAINTY_ASSIGNED_CONTEXT((#917))
GLOBAL_UNIT_ASSIGNED_CONTEXT((#924,#926,#927))
REPRESENTATION_CONTEXT('','3D')
);
#924=(
LENGTH_UNIT()
NAMED_UNIT(*)
SI_UNIT(.MILLI.,.METRE.)
);
#925=(
LENGTH_UNIT()
NAMED_UNIT(*)
SI_UNIT($,.METRE.)
);
#926=(
NAMED_UNIT(*)
PLANE_ANGLE_UNIT()
SI_UNIT($,.RADIAN.)
);
#927=(
NAMED_UNIT(*)
SI_UNIT($,.STERADIAN.)
SOLID_ANGLE_UNIT()
);
#928=SHAPE_DEFINITION_REPRESENTATION(#933,#945);
#929=SHAPE_DEFINITION_REPRESENTATION(#934,#946);
#930=SHAPE_DEFINITION_REPRESENTATION(#935,#947);
#931=SHAPE_DEFINITION_REPRESENTATION(#936,#948);
#932=SHAPE_DEFINITION_REPRESENTATION(#941,#949);
#933=PRODUCT_DEFINITION_SHAPE('',$,#951);
#934=PRODUCT_DEFINITION_SHAPE('',$,#952);
#935=PRODUCT_DEFINITION_SHAPE('',$,#953);
#936=PRODUCT_DEFINITION_SHAPE('',$,#954);
#937=PRODUCT_DEFINITION_SHAPE($,$,#32);
#938=PRODUCT_DEFINITION_SHAPE($,$,#33);
#939=PRODUCT_DEFINITION_SHAPE($,$,#34);
#940=PRODUCT_DEFINITION_SHAPE($,$,#35);
#941=PRODUCT_DEFINITION_SHAPE('',$,#955);
#942=PRODUCT_DEFINITION_SHAPE($,$,#36);
#943=PRODUCT_DEFINITION_SHAPE($,$,#37);
#944=PRODUCT_DEFINITION_SHAPE($,$,#38);
#945=SHAPE_REPRESENTATION('',(#536,#596,#597,#598),#918);
#946=SHAPE_REPRESENTATION('',(#537),#919);
#947=SHAPE_REPRESENTATION('',(#589,#591,#592,#593,#594),#920);
#948=SHAPE_REPRESENTATION('',(#590),#921);
#949=SHAPE_REPRESENTATION('',(#595),#922);
#950=PRODUCT_DEFINITION_CONTEXT('part definition',#967,'design');
#951=PRODUCT_DEFINITION('Box for SRS','Box for SRS v12',#956,#950);
#952=PRODUCT_DEFINITION('Box','Box',#957,#950);
#953=PRODUCT_DEFINITION('Screws','Screws',#958,#950);
#954=PRODUCT_DEFINITION('92610A247_Torx Alloy Steel Socket Head Screws',
'92610A247_Torx Alloy Steel Socket Head Screws',#959,#950);
#955=PRODUCT_DEFINITION('Lid','Lid',#960,#950);
#956=PRODUCT_DEFINITION_FORMATION('',$,#969);
#957=PRODUCT_DEFINITION_FORMATION('',$,#970);
#958=PRODUCT_DEFINITION_FORMATION('',$,#971);
#959=PRODUCT_DEFINITION_FORMATION('',$,#972);
#960=PRODUCT_DEFINITION_FORMATION('',$,#973);
#961=PRODUCT_RELATED_PRODUCT_CATEGORY('Box for SRS v12',
'Box for SRS v12',(#969));
#962=PRODUCT_RELATED_PRODUCT_CATEGORY('Box','Box',(#970));
#963=PRODUCT_RELATED_PRODUCT_CATEGORY('Screws','Screws',(#971));
#964=PRODUCT_RELATED_PRODUCT_CATEGORY(
'92610A247_Torx Alloy Steel Socket Head Screws',
'92610A247_Torx Alloy Steel Socket Head Screws',(#972));
#965=PRODUCT_RELATED_PRODUCT_CATEGORY('Lid','Lid',(#973));
#966=APPLICATION_PROTOCOL_DEFINITION('international standard',
'automotive_design',2009,#967);
#967=APPLICATION_CONTEXT(
'Core Data for Automotive Mechanical Design Process');
#968=PRODUCT_CONTEXT('part definition',#967,'mechanical');
#969=PRODUCT('Box for SRS','Box for SRS v12',$,(#968));
#970=PRODUCT('Box','Box',$,(#968));
#971=PRODUCT('Screws','Screws',$,(#968));
#972=PRODUCT('92610A247_Torx Alloy Steel Socket Head Screws',
'92610A247_Torx Alloy Steel Socket Head Screws',$,(#968));
#973=PRODUCT('Lid','Lid',$,(#968));
#974=PRESENTATION_STYLE_ASSIGNMENT((#977));
#975=PRESENTATION_STYLE_ASSIGNMENT((#978));
#976=PRESENTATION_STYLE_ASSIGNMENT((#979));
#977=SURFACE_STYLE_USAGE(.BOTH.,#980);
#978=SURFACE_STYLE_USAGE(.BOTH.,#981);
#979=SURFACE_STYLE_USAGE(.BOTH.,#982);
#980=SURFACE_SIDE_STYLE('',(#983));
#981=SURFACE_SIDE_STYLE('',(#984));
#982=SURFACE_SIDE_STYLE('',(#985));
#983=SURFACE_STYLE_FILL_AREA(#986);
#984=SURFACE_STYLE_FILL_AREA(#987);
#985=SURFACE_STYLE_FILL_AREA(#988);
#986=FILL_AREA_STYLE('Steel - Satin',(#989));
#987=FILL_AREA_STYLE('Oak',(#990));
#988=FILL_AREA_STYLE('Walnut',(#991));
#989=FILL_AREA_STYLE_COLOUR('Steel - Satin',#992);
#990=FILL_AREA_STYLE_COLOUR('Oak',#993);
#991=FILL_AREA_STYLE_COLOUR('Walnut',#994);
#992=COLOUR_RGB('Steel - Satin',0.627450980392157,0.627450980392157,0.627450980392157);
#993=COLOUR_RGB('Oak',0.,0.,0.);
#994=COLOUR_RGB('Walnut',0.,0.,0.);
ENDSEC;
END-ISO-10303-21;
