ISO-10303-21;
HEADER;
/* Generated by software containing ST-Developer
 * from STEP Tools, Inc. (www.steptools.com) 
 */

FILE_DESCRIPTION(
/* description */ (''),
/* implementation_level */ '2;1');

FILE_NAME(
/* name */ 'SRS Top Box.step',
/* time_stamp */ '2026-03-13T02:51:09+06:00',
/* author */ (''),
/* organization */ (''),
/* preprocessor_version */ 'ST-DEVELOPER v20.1',
/* originating_system */ 'Autodesk Translation Framework v14.24.0.0',
/* authorisation */ '');

FILE_SCHEMA (('AUTOMOTIVE_DESIGN { 1 0 10303 214 3 1 1 }'));
ENDSEC;

DATA;
#10=MECHANICAL_DESIGN_GEOMETRIC_PRESENTATION_REPRESENTATION('',(#18,#19,
#20,#21),#1061);
#11=CONTEXT_DEPENDENT_OVER_RIDING_STYLED_ITEM('',(#1113),#1087,#21,(#565));
#12=MAPPED_ITEM('',#13,#690);
#13=REPRESENTATION_MAP(#690,#1083);
#14=SHAPE_REPRESENTATION_RELATIONSHIP('SRR','None',#1087,#15);
#15=ADVANCED_BREP_SHAPE_REPRESENTATION('',(#16,#17),#1060);
#16=MANIFOLD_SOLID_BREP('Body1',#550);
#17=MANIFOLD_SOLID_BREP('Body2',#551);
#18=STYLED_ITEM('',(#1113),#538);
#19=STYLED_ITEM('',(#1113),#16);
#20=STYLED_ITEM('',(#1113),#17);
#21=STYLED_ITEM('',(#1115),#12);
#22=LINE('',#902,#62);
#23=LINE('',#905,#63);
#24=LINE('',#915,#64);
#25=LINE('',#918,#65);
#26=LINE('',#928,#66);
#27=LINE('',#931,#67);
#28=LINE('',#941,#68);
#29=LINE('',#944,#69);
#30=LINE('',#951,#70);
#31=LINE('',#954,#71);
#32=LINE('',#957,#72);
#33=LINE('',#959,#73);
#34=LINE('',#960,#74);
#35=LINE('',#966,#75);
#36=LINE('',#969,#76);
#37=LINE('',#971,#77);
#38=LINE('',#972,#78);
#39=LINE('',#978,#79);
#40=LINE('',#981,#80);
#41=LINE('',#983,#81);
#42=LINE('',#984,#82);
#43=LINE('',#990,#83);
#44=LINE('',#992,#84);
#45=LINE('',#993,#85);
#46=LINE('',#999,#86);
#47=LINE('',#1001,#87);
#48=LINE('',#1003,#88);
#49=LINE('',#1004,#89);
#50=LINE('',#1010,#90);
#51=LINE('',#1013,#91);
#52=LINE('',#1015,#92);
#53=LINE('',#1016,#93);
#54=LINE('',#1022,#94);
#55=LINE('',#1025,#95);
#56=LINE('',#1027,#96);
#57=LINE('',#1028,#97);
#58=LINE('',#1034,#98);
#59=LINE('',#1037,#99);
#60=LINE('',#1039,#100);
#61=LINE('',#1040,#101);
#62=VECTOR('',#719,5.5);
#63=VECTOR('',#722,3.3);
#64=VECTOR('',#735,5.5);
#65=VECTOR('',#738,3.3);
#66=VECTOR('',#751,5.5);
#67=VECTOR('',#754,3.3);
#68=VECTOR('',#767,5.5);
#69=VECTOR('',#770,3.3);
#70=VECTOR('',#777,10.);
#71=VECTOR('',#780,10.);
#72=VECTOR('',#783,10.);
#73=VECTOR('',#784,10.);
#74=VECTOR('',#785,10.);
#75=VECTOR('',#792,10.);
#76=VECTOR('',#795,10.);
#77=VECTOR('',#796,10.);
#78=VECTOR('',#797,10.);
#79=VECTOR('',#804,10.);
#80=VECTOR('',#807,10.);
#81=VECTOR('',#808,10.);
#82=VECTOR('',#809,10.);
#83=VECTOR('',#816,10.);
#84=VECTOR('',#819,10.);
#85=VECTOR('',#820,10.);
#86=VECTOR('',#827,10.);
#87=VECTOR('',#828,10.);
#88=VECTOR('',#829,10.);
#89=VECTOR('',#830,10.);
#90=VECTOR('',#837,10.);
#91=VECTOR('',#840,10.);
#92=VECTOR('',#841,10.);
#93=VECTOR('',#842,10.);
#94=VECTOR('',#849,10.);
#95=VECTOR('',#852,10.);
#96=VECTOR('',#853,10.);
#97=VECTOR('',#854,10.);
#98=VECTOR('',#861,10.);
#99=VECTOR('',#864,10.);
#100=VECTOR('',#865,10.);
#101=VECTOR('',#866,10.);
#102=CYLINDRICAL_SURFACE('',#626,5.5);
#103=CYLINDRICAL_SURFACE('',#628,3.3);
#104=CYLINDRICAL_SURFACE('',#633,5.5);
#105=CYLINDRICAL_SURFACE('',#635,3.3);
#106=CYLINDRICAL_SURFACE('',#640,5.5);
#107=CYLINDRICAL_SURFACE('',#642,3.3);
#108=CYLINDRICAL_SURFACE('',#647,5.5);
#109=CYLINDRICAL_SURFACE('',#649,3.3);
#110=CYLINDRICAL_SURFACE('',#651,12.7000000000001);
#111=CYLINDRICAL_SURFACE('',#655,12.6999999999426);
#112=CYLINDRICAL_SURFACE('',#659,12.7000000001076);
#113=CYLINDRICAL_SURFACE('',#663,12.6999999999942);
#114=CYLINDRICAL_SURFACE('',#670,2.54000000002856);
#115=CYLINDRICAL_SURFACE('',#674,2.53999999999615);
#116=CYLINDRICAL_SURFACE('',#678,2.54000000025552);
#117=CYLINDRICAL_SURFACE('',#682,2.54000000005671);
#118=FACE_BOUND('',#163,.T.);
#119=FACE_BOUND('',#167,.T.);
#120=FACE_BOUND('',#171,.T.);
#121=FACE_BOUND('',#175,.T.);
#122=FACE_BOUND('',#187,.T.);
#123=FACE_BOUND('',#188,.T.);
#124=FACE_BOUND('',#189,.T.);
#125=FACE_BOUND('',#190,.T.);
#126=FACE_BOUND('',#192,.T.);
#127=FACE_BOUND('',#193,.T.);
#128=FACE_BOUND('',#194,.T.);
#129=FACE_BOUND('',#195,.T.);
#130=FACE_OUTER_BOUND('',#162,.T.);
#131=FACE_OUTER_BOUND('',#164,.T.);
#132=FACE_OUTER_BOUND('',#165,.T.);
#133=FACE_OUTER_BOUND('',#166,.T.);
#134=FACE_OUTER_BOUND('',#168,.T.);
#135=FACE_OUTER_BOUND('',#169,.T.);
#136=FACE_OUTER_BOUND('',#170,.T.);
#137=FACE_OUTER_BOUND('',#172,.T.);
#138=FACE_OUTER_BOUND('',#173,.T.);
#139=FACE_OUTER_BOUND('',#174,.T.);
#140=FACE_OUTER_BOUND('',#176,.T.);
#141=FACE_OUTER_BOUND('',#177,.T.);
#142=FACE_OUTER_BOUND('',#178,.T.);
#143=FACE_OUTER_BOUND('',#179,.T.);
#144=FACE_OUTER_BOUND('',#180,.T.);
#145=FACE_OUTER_BOUND('',#181,.T.);
#146=FACE_OUTER_BOUND('',#182,.T.);
#147=FACE_OUTER_BOUND('',#183,.T.);
#148=FACE_OUTER_BOUND('',#184,.T.);
#149=FACE_OUTER_BOUND('',#185,.T.);
#150=FACE_OUTER_BOUND('',#186,.T.);
#151=FACE_OUTER_BOUND('',#191,.T.);
#152=FACE_OUTER_BOUND('',#196,.T.);
#153=FACE_OUTER_BOUND('',#197,.T.);
#154=FACE_OUTER_BOUND('',#198,.T.);
#155=FACE_OUTER_BOUND('',#199,.T.);
#156=FACE_OUTER_BOUND('',#200,.T.);
#157=FACE_OUTER_BOUND('',#201,.T.);
#158=FACE_OUTER_BOUND('',#202,.T.);
#159=FACE_OUTER_BOUND('',#203,.T.);
#160=FACE_OUTER_BOUND('',#204,.T.);
#161=FACE_OUTER_BOUND('',#205,.T.);
#162=EDGE_LOOP('',(#358));
#163=EDGE_LOOP('',(#359));
#164=EDGE_LOOP('',(#360,#361,#362,#363));
#165=EDGE_LOOP('',(#364,#365,#366,#367));
#166=EDGE_LOOP('',(#368));
#167=EDGE_LOOP('',(#369));
#168=EDGE_LOOP('',(#370,#371,#372,#373));
#169=EDGE_LOOP('',(#374,#375,#376,#377));
#170=EDGE_LOOP('',(#378));
#171=EDGE_LOOP('',(#379));
#172=EDGE_LOOP('',(#380,#381,#382,#383));
#173=EDGE_LOOP('',(#384,#385,#386,#387));
#174=EDGE_LOOP('',(#388));
#175=EDGE_LOOP('',(#389));
#176=EDGE_LOOP('',(#390,#391,#392,#393));
#177=EDGE_LOOP('',(#394,#395,#396,#397));
#178=EDGE_LOOP('',(#398,#399,#400,#401));
#179=EDGE_LOOP('',(#402,#403,#404,#405));
#180=EDGE_LOOP('',(#406,#407,#408,#409));
#181=EDGE_LOOP('',(#410,#411,#412,#413));
#182=EDGE_LOOP('',(#414,#415,#416,#417));
#183=EDGE_LOOP('',(#418,#419,#420,#421));
#184=EDGE_LOOP('',(#422,#423,#424,#425));
#185=EDGE_LOOP('',(#426,#427,#428,#429));
#186=EDGE_LOOP('',(#430,#431,#432,#433,#434,#435,#436,#437));
#187=EDGE_LOOP('',(#438));
#188=EDGE_LOOP('',(#439));
#189=EDGE_LOOP('',(#440));
#190=EDGE_LOOP('',(#441));
#191=EDGE_LOOP('',(#442,#443,#444,#445,#446,#447,#448,#449));
#192=EDGE_LOOP('',(#450));
#193=EDGE_LOOP('',(#451));
#194=EDGE_LOOP('',(#452));
#195=EDGE_LOOP('',(#453));
#196=EDGE_LOOP('',(#454,#455,#456,#457));
#197=EDGE_LOOP('',(#458,#459,#460,#461));
#198=EDGE_LOOP('',(#462,#463,#464,#465));
#199=EDGE_LOOP('',(#466,#467,#468,#469));
#200=EDGE_LOOP('',(#470,#471,#472,#473));
#201=EDGE_LOOP('',(#474,#475,#476,#477));
#202=EDGE_LOOP('',(#478,#479,#480,#481));
#203=EDGE_LOOP('',(#482,#483,#484,#485));
#204=EDGE_LOOP('',(#486,#487,#488,#489,#490,#491,#492,#493));
#205=EDGE_LOOP('',(#494,#495,#496,#497,#498,#499,#500,#501));
#206=CIRCLE('',#624,5.5);
#207=CIRCLE('',#625,3.3);
#208=CIRCLE('',#627,5.5);
#209=CIRCLE('',#629,3.3);
#210=CIRCLE('',#631,5.5);
#211=CIRCLE('',#632,3.3);
#212=CIRCLE('',#634,5.5);
#213=CIRCLE('',#636,3.3);
#214=CIRCLE('',#638,5.5);
#215=CIRCLE('',#639,3.3);
#216=CIRCLE('',#641,5.5);
#217=CIRCLE('',#643,3.3);
#218=CIRCLE('',#645,5.5);
#219=CIRCLE('',#646,3.3);
#220=CIRCLE('',#648,5.5);
#221=CIRCLE('',#650,3.3);
#222=CIRCLE('',#652,12.7000000000001);
#223=CIRCLE('',#653,12.7000000000001);
#224=CIRCLE('',#656,12.6999999999426);
#225=CIRCLE('',#657,12.6999999999426);
#226=CIRCLE('',#660,12.7000000001076);
#227=CIRCLE('',#661,12.7000000001076);
#228=CIRCLE('',#664,12.6999999999942);
#229=CIRCLE('',#665,12.6999999999942);
#230=CIRCLE('',#671,2.54000000002856);
#231=CIRCLE('',#672,2.54000000002856);
#232=CIRCLE('',#675,2.53999999999615);
#233=CIRCLE('',#676,2.53999999999615);
#234=CIRCLE('',#679,2.54000000025552);
#235=CIRCLE('',#680,2.54000000025552);
#236=CIRCLE('',#683,2.54000000005671);
#237=CIRCLE('',#684,2.54000000005671);
#238=VERTEX_POINT('',#895);
#239=VERTEX_POINT('',#897);
#240=VERTEX_POINT('',#900);
#241=VERTEX_POINT('',#904);
#242=VERTEX_POINT('',#908);
#243=VERTEX_POINT('',#910);
#244=VERTEX_POINT('',#913);
#245=VERTEX_POINT('',#917);
#246=VERTEX_POINT('',#921);
#247=VERTEX_POINT('',#923);
#248=VERTEX_POINT('',#926);
#249=VERTEX_POINT('',#930);
#250=VERTEX_POINT('',#934);
#251=VERTEX_POINT('',#936);
#252=VERTEX_POINT('',#939);
#253=VERTEX_POINT('',#943);
#254=VERTEX_POINT('',#947);
#255=VERTEX_POINT('',#948);
#256=VERTEX_POINT('',#950);
#257=VERTEX_POINT('',#952);
#258=VERTEX_POINT('',#956);
#259=VERTEX_POINT('',#958);
#260=VERTEX_POINT('',#962);
#261=VERTEX_POINT('',#964);
#262=VERTEX_POINT('',#968);
#263=VERTEX_POINT('',#970);
#264=VERTEX_POINT('',#974);
#265=VERTEX_POINT('',#976);
#266=VERTEX_POINT('',#980);
#267=VERTEX_POINT('',#982);
#268=VERTEX_POINT('',#986);
#269=VERTEX_POINT('',#988);
#270=VERTEX_POINT('',#997);
#271=VERTEX_POINT('',#998);
#272=VERTEX_POINT('',#1000);
#273=VERTEX_POINT('',#1002);
#274=VERTEX_POINT('',#1006);
#275=VERTEX_POINT('',#1008);
#276=VERTEX_POINT('',#1012);
#277=VERTEX_POINT('',#1014);
#278=VERTEX_POINT('',#1018);
#279=VERTEX_POINT('',#1020);
#280=VERTEX_POINT('',#1024);
#281=VERTEX_POINT('',#1026);
#282=VERTEX_POINT('',#1030);
#283=VERTEX_POINT('',#1032);
#284=VERTEX_POINT('',#1036);
#285=VERTEX_POINT('',#1038);
#286=EDGE_CURVE('',#238,#238,#206,.T.);
#287=EDGE_CURVE('',#239,#239,#207,.T.);
#288=EDGE_CURVE('',#240,#240,#208,.T.);
#289=EDGE_CURVE('',#240,#238,#22,.T.);
#290=EDGE_CURVE('',#239,#241,#23,.T.);
#291=EDGE_CURVE('',#241,#241,#209,.T.);
#292=EDGE_CURVE('',#242,#242,#210,.T.);
#293=EDGE_CURVE('',#243,#243,#211,.T.);
#294=EDGE_CURVE('',#244,#244,#212,.T.);
#295=EDGE_CURVE('',#244,#242,#24,.T.);
#296=EDGE_CURVE('',#243,#245,#25,.T.);
#297=EDGE_CURVE('',#245,#245,#213,.T.);
#298=EDGE_CURVE('',#246,#246,#214,.T.);
#299=EDGE_CURVE('',#247,#247,#215,.T.);
#300=EDGE_CURVE('',#248,#248,#216,.T.);
#301=EDGE_CURVE('',#248,#246,#26,.T.);
#302=EDGE_CURVE('',#247,#249,#27,.T.);
#303=EDGE_CURVE('',#249,#249,#217,.T.);
#304=EDGE_CURVE('',#250,#250,#218,.T.);
#305=EDGE_CURVE('',#251,#251,#219,.T.);
#306=EDGE_CURVE('',#252,#252,#220,.T.);
#307=EDGE_CURVE('',#252,#250,#28,.T.);
#308=EDGE_CURVE('',#251,#253,#29,.T.);
#309=EDGE_CURVE('',#253,#253,#221,.T.);
#310=EDGE_CURVE('',#254,#255,#222,.T.);
#311=EDGE_CURVE('',#255,#256,#30,.T.);
#312=EDGE_CURVE('',#257,#256,#223,.T.);
#313=EDGE_CURVE('',#254,#257,#31,.T.);
#314=EDGE_CURVE('',#258,#254,#32,.T.);
#315=EDGE_CURVE('',#259,#257,#33,.T.);
#316=EDGE_CURVE('',#258,#259,#34,.T.);
#317=EDGE_CURVE('',#260,#258,#224,.T.);
#318=EDGE_CURVE('',#261,#259,#225,.T.);
#319=EDGE_CURVE('',#260,#261,#35,.T.);
#320=EDGE_CURVE('',#262,#260,#36,.T.);
#321=EDGE_CURVE('',#263,#261,#37,.T.);
#322=EDGE_CURVE('',#262,#263,#38,.T.);
#323=EDGE_CURVE('',#264,#262,#226,.T.);
#324=EDGE_CURVE('',#265,#263,#227,.T.);
#325=EDGE_CURVE('',#264,#265,#39,.T.);
#326=EDGE_CURVE('',#266,#264,#40,.T.);
#327=EDGE_CURVE('',#267,#265,#41,.T.);
#328=EDGE_CURVE('',#266,#267,#42,.T.);
#329=EDGE_CURVE('',#268,#266,#228,.T.);
#330=EDGE_CURVE('',#269,#267,#229,.T.);
#331=EDGE_CURVE('',#268,#269,#43,.T.);
#332=EDGE_CURVE('',#255,#268,#44,.T.);
#333=EDGE_CURVE('',#256,#269,#45,.T.);
#334=EDGE_CURVE('',#270,#271,#46,.T.);
#335=EDGE_CURVE('',#271,#272,#47,.T.);
#336=EDGE_CURVE('',#273,#272,#48,.T.);
#337=EDGE_CURVE('',#270,#273,#49,.T.);
#338=EDGE_CURVE('',#270,#274,#230,.T.);
#339=EDGE_CURVE('',#275,#273,#231,.T.);
#340=EDGE_CURVE('',#274,#275,#50,.T.);
#341=EDGE_CURVE('',#276,#274,#51,.T.);
#342=EDGE_CURVE('',#277,#275,#52,.T.);
#343=EDGE_CURVE('',#276,#277,#53,.T.);
#344=EDGE_CURVE('',#276,#278,#232,.T.);
#345=EDGE_CURVE('',#279,#277,#233,.T.);
#346=EDGE_CURVE('',#278,#279,#54,.T.);
#347=EDGE_CURVE('',#280,#278,#55,.T.);
#348=EDGE_CURVE('',#281,#279,#56,.T.);
#349=EDGE_CURVE('',#280,#281,#57,.T.);
#350=EDGE_CURVE('',#280,#282,#234,.T.);
#351=EDGE_CURVE('',#283,#281,#235,.T.);
#352=EDGE_CURVE('',#282,#283,#58,.T.);
#353=EDGE_CURVE('',#284,#282,#59,.T.);
#354=EDGE_CURVE('',#285,#283,#60,.T.);
#355=EDGE_CURVE('',#284,#285,#61,.T.);
#356=EDGE_CURVE('',#284,#271,#236,.T.);
#357=EDGE_CURVE('',#272,#285,#237,.T.);
#358=ORIENTED_EDGE('',*,*,#286,.F.);
#359=ORIENTED_EDGE('',*,*,#287,.T.);
#360=ORIENTED_EDGE('',*,*,#288,.F.);
#361=ORIENTED_EDGE('',*,*,#289,.T.);
#362=ORIENTED_EDGE('',*,*,#286,.T.);
#363=ORIENTED_EDGE('',*,*,#289,.F.);
#364=ORIENTED_EDGE('',*,*,#287,.F.);
#365=ORIENTED_EDGE('',*,*,#290,.T.);
#366=ORIENTED_EDGE('',*,*,#291,.F.);
#367=ORIENTED_EDGE('',*,*,#290,.F.);
#368=ORIENTED_EDGE('',*,*,#292,.F.);
#369=ORIENTED_EDGE('',*,*,#293,.T.);
#370=ORIENTED_EDGE('',*,*,#294,.F.);
#371=ORIENTED_EDGE('',*,*,#295,.T.);
#372=ORIENTED_EDGE('',*,*,#292,.T.);
#373=ORIENTED_EDGE('',*,*,#295,.F.);
#374=ORIENTED_EDGE('',*,*,#293,.F.);
#375=ORIENTED_EDGE('',*,*,#296,.T.);
#376=ORIENTED_EDGE('',*,*,#297,.F.);
#377=ORIENTED_EDGE('',*,*,#296,.F.);
#378=ORIENTED_EDGE('',*,*,#298,.F.);
#379=ORIENTED_EDGE('',*,*,#299,.T.);
#380=ORIENTED_EDGE('',*,*,#300,.F.);
#381=ORIENTED_EDGE('',*,*,#301,.T.);
#382=ORIENTED_EDGE('',*,*,#298,.T.);
#383=ORIENTED_EDGE('',*,*,#301,.F.);
#384=ORIENTED_EDGE('',*,*,#299,.F.);
#385=ORIENTED_EDGE('',*,*,#302,.T.);
#386=ORIENTED_EDGE('',*,*,#303,.F.);
#387=ORIENTED_EDGE('',*,*,#302,.F.);
#388=ORIENTED_EDGE('',*,*,#304,.F.);
#389=ORIENTED_EDGE('',*,*,#305,.T.);
#390=ORIENTED_EDGE('',*,*,#306,.F.);
#391=ORIENTED_EDGE('',*,*,#307,.T.);
#392=ORIENTED_EDGE('',*,*,#304,.T.);
#393=ORIENTED_EDGE('',*,*,#307,.F.);
#394=ORIENTED_EDGE('',*,*,#305,.F.);
#395=ORIENTED_EDGE('',*,*,#308,.T.);
#396=ORIENTED_EDGE('',*,*,#309,.F.);
#397=ORIENTED_EDGE('',*,*,#308,.F.);
#398=ORIENTED_EDGE('',*,*,#310,.T.);
#399=ORIENTED_EDGE('',*,*,#311,.T.);
#400=ORIENTED_EDGE('',*,*,#312,.F.);
#401=ORIENTED_EDGE('',*,*,#313,.F.);
#402=ORIENTED_EDGE('',*,*,#314,.T.);
#403=ORIENTED_EDGE('',*,*,#313,.T.);
#404=ORIENTED_EDGE('',*,*,#315,.F.);
#405=ORIENTED_EDGE('',*,*,#316,.F.);
#406=ORIENTED_EDGE('',*,*,#317,.T.);
#407=ORIENTED_EDGE('',*,*,#316,.T.);
#408=ORIENTED_EDGE('',*,*,#318,.F.);
#409=ORIENTED_EDGE('',*,*,#319,.F.);
#410=ORIENTED_EDGE('',*,*,#320,.T.);
#411=ORIENTED_EDGE('',*,*,#319,.T.);
#412=ORIENTED_EDGE('',*,*,#321,.F.);
#413=ORIENTED_EDGE('',*,*,#322,.F.);
#414=ORIENTED_EDGE('',*,*,#323,.T.);
#415=ORIENTED_EDGE('',*,*,#322,.T.);
#416=ORIENTED_EDGE('',*,*,#324,.F.);
#417=ORIENTED_EDGE('',*,*,#325,.F.);
#418=ORIENTED_EDGE('',*,*,#326,.T.);
#419=ORIENTED_EDGE('',*,*,#325,.T.);
#420=ORIENTED_EDGE('',*,*,#327,.F.);
#421=ORIENTED_EDGE('',*,*,#328,.F.);
#422=ORIENTED_EDGE('',*,*,#329,.T.);
#423=ORIENTED_EDGE('',*,*,#328,.T.);
#424=ORIENTED_EDGE('',*,*,#330,.F.);
#425=ORIENTED_EDGE('',*,*,#331,.F.);
#426=ORIENTED_EDGE('',*,*,#332,.T.);
#427=ORIENTED_EDGE('',*,*,#331,.T.);
#428=ORIENTED_EDGE('',*,*,#333,.F.);
#429=ORIENTED_EDGE('',*,*,#311,.F.);
#430=ORIENTED_EDGE('',*,*,#333,.T.);
#431=ORIENTED_EDGE('',*,*,#330,.T.);
#432=ORIENTED_EDGE('',*,*,#327,.T.);
#433=ORIENTED_EDGE('',*,*,#324,.T.);
#434=ORIENTED_EDGE('',*,*,#321,.T.);
#435=ORIENTED_EDGE('',*,*,#318,.T.);
#436=ORIENTED_EDGE('',*,*,#315,.T.);
#437=ORIENTED_EDGE('',*,*,#312,.T.);
#438=ORIENTED_EDGE('',*,*,#288,.T.);
#439=ORIENTED_EDGE('',*,*,#294,.T.);
#440=ORIENTED_EDGE('',*,*,#300,.T.);
#441=ORIENTED_EDGE('',*,*,#306,.T.);
#442=ORIENTED_EDGE('',*,*,#332,.F.);
#443=ORIENTED_EDGE('',*,*,#310,.F.);
#444=ORIENTED_EDGE('',*,*,#314,.F.);
#445=ORIENTED_EDGE('',*,*,#317,.F.);
#446=ORIENTED_EDGE('',*,*,#320,.F.);
#447=ORIENTED_EDGE('',*,*,#323,.F.);
#448=ORIENTED_EDGE('',*,*,#326,.F.);
#449=ORIENTED_EDGE('',*,*,#329,.F.);
#450=ORIENTED_EDGE('',*,*,#291,.T.);
#451=ORIENTED_EDGE('',*,*,#297,.T.);
#452=ORIENTED_EDGE('',*,*,#303,.T.);
#453=ORIENTED_EDGE('',*,*,#309,.T.);
#454=ORIENTED_EDGE('',*,*,#334,.T.);
#455=ORIENTED_EDGE('',*,*,#335,.T.);
#456=ORIENTED_EDGE('',*,*,#336,.F.);
#457=ORIENTED_EDGE('',*,*,#337,.F.);
#458=ORIENTED_EDGE('',*,*,#338,.F.);
#459=ORIENTED_EDGE('',*,*,#337,.T.);
#460=ORIENTED_EDGE('',*,*,#339,.F.);
#461=ORIENTED_EDGE('',*,*,#340,.F.);
#462=ORIENTED_EDGE('',*,*,#341,.T.);
#463=ORIENTED_EDGE('',*,*,#340,.T.);
#464=ORIENTED_EDGE('',*,*,#342,.F.);
#465=ORIENTED_EDGE('',*,*,#343,.F.);
#466=ORIENTED_EDGE('',*,*,#344,.F.);
#467=ORIENTED_EDGE('',*,*,#343,.T.);
#468=ORIENTED_EDGE('',*,*,#345,.F.);
#469=ORIENTED_EDGE('',*,*,#346,.F.);
#470=ORIENTED_EDGE('',*,*,#347,.T.);
#471=ORIENTED_EDGE('',*,*,#346,.T.);
#472=ORIENTED_EDGE('',*,*,#348,.F.);
#473=ORIENTED_EDGE('',*,*,#349,.F.);
#474=ORIENTED_EDGE('',*,*,#350,.F.);
#475=ORIENTED_EDGE('',*,*,#349,.T.);
#476=ORIENTED_EDGE('',*,*,#351,.F.);
#477=ORIENTED_EDGE('',*,*,#352,.F.);
#478=ORIENTED_EDGE('',*,*,#353,.T.);
#479=ORIENTED_EDGE('',*,*,#352,.T.);
#480=ORIENTED_EDGE('',*,*,#354,.F.);
#481=ORIENTED_EDGE('',*,*,#355,.F.);
#482=ORIENTED_EDGE('',*,*,#356,.F.);
#483=ORIENTED_EDGE('',*,*,#355,.T.);
#484=ORIENTED_EDGE('',*,*,#357,.F.);
#485=ORIENTED_EDGE('',*,*,#335,.F.);
#486=ORIENTED_EDGE('',*,*,#356,.T.);
#487=ORIENTED_EDGE('',*,*,#334,.F.);
#488=ORIENTED_EDGE('',*,*,#338,.T.);
#489=ORIENTED_EDGE('',*,*,#341,.F.);
#490=ORIENTED_EDGE('',*,*,#344,.T.);
#491=ORIENTED_EDGE('',*,*,#347,.F.);
#492=ORIENTED_EDGE('',*,*,#350,.T.);
#493=ORIENTED_EDGE('',*,*,#353,.F.);
#494=ORIENTED_EDGE('',*,*,#357,.T.);
#495=ORIENTED_EDGE('',*,*,#354,.T.);
#496=ORIENTED_EDGE('',*,*,#351,.T.);
#497=ORIENTED_EDGE('',*,*,#348,.T.);
#498=ORIENTED_EDGE('',*,*,#345,.T.);
#499=ORIENTED_EDGE('',*,*,#342,.T.);
#500=ORIENTED_EDGE('',*,*,#339,.T.);
#501=ORIENTED_EDGE('',*,*,#336,.T.);
#502=PLANE('',#623);
#503=PLANE('',#630);
#504=PLANE('',#637);
#505=PLANE('',#644);
#506=PLANE('',#654);
#507=PLANE('',#658);
#508=PLANE('',#662);
#509=PLANE('',#666);
#510=PLANE('',#667);
#511=PLANE('',#668);
#512=PLANE('',#669);
#513=PLANE('',#673);
#514=PLANE('',#677);
#515=PLANE('',#681);
#516=PLANE('',#685);
#517=PLANE('',#686);
#518=ADVANCED_FACE('',(#130,#118),#502,.F.);
#519=ADVANCED_FACE('',(#131),#102,.F.);
#520=ADVANCED_FACE('',(#132),#103,.F.);
#521=ADVANCED_FACE('',(#133,#119),#503,.F.);
#522=ADVANCED_FACE('',(#134),#104,.F.);
#523=ADVANCED_FACE('',(#135),#105,.F.);
#524=ADVANCED_FACE('',(#136,#120),#504,.F.);
#525=ADVANCED_FACE('',(#137),#106,.F.);
#526=ADVANCED_FACE('',(#138),#107,.F.);
#527=ADVANCED_FACE('',(#139,#121),#505,.F.);
#528=ADVANCED_FACE('',(#140),#108,.F.);
#529=ADVANCED_FACE('',(#141),#109,.F.);
#530=ADVANCED_FACE('',(#142),#110,.T.);
#531=ADVANCED_FACE('',(#143),#506,.T.);
#532=ADVANCED_FACE('',(#144),#111,.T.);
#533=ADVANCED_FACE('',(#145),#507,.T.);
#534=ADVANCED_FACE('',(#146),#112,.T.);
#535=ADVANCED_FACE('',(#147),#508,.T.);
#536=ADVANCED_FACE('',(#148),#113,.T.);
#537=ADVANCED_FACE('',(#149),#509,.T.);
#538=ADVANCED_FACE('',(#150,#122,#123,#124,#125),#510,.T.);
#539=ADVANCED_FACE('',(#151,#126,#127,#128,#129),#511,.F.);
#540=ADVANCED_FACE('',(#152),#512,.T.);
#541=ADVANCED_FACE('',(#153),#114,.T.);
#542=ADVANCED_FACE('',(#154),#513,.T.);
#543=ADVANCED_FACE('',(#155),#115,.T.);
#544=ADVANCED_FACE('',(#156),#514,.T.);
#545=ADVANCED_FACE('',(#157),#116,.T.);
#546=ADVANCED_FACE('',(#158),#515,.T.);
#547=ADVANCED_FACE('',(#159),#117,.T.);
#548=ADVANCED_FACE('',(#160),#516,.T.);
#549=ADVANCED_FACE('',(#161),#517,.F.);
#550=CLOSED_SHELL('',(#518,#519,#520,#521,#522,#523,#524,#525,#526,#527,
#528,#529,#530,#531,#532,#533,#534,#535,#536,#537,#538,#539));
#551=CLOSED_SHELL('',(#540,#541,#542,#543,#544,#545,#546,#547,#548,#549));
#552=ITEM_DEFINED_TRANSFORMATION($,$,#617,#618);
#553=ITEM_DEFINED_TRANSFORMATION($,$,#617,#619);
#554=ITEM_DEFINED_TRANSFORMATION($,$,#617,#620);
#555=ITEM_DEFINED_TRANSFORMATION($,$,#617,#621);
#556=ITEM_DEFINED_TRANSFORMATION($,$,#615,#687);
#557=ITEM_DEFINED_TRANSFORMATION($,$,#616,#688);
#558=ITEM_DEFINED_TRANSFORMATION($,$,#622,#689);
#559=(
REPRESENTATION_RELATIONSHIP($,$,#1086,#1085)
REPRESENTATION_RELATIONSHIP_WITH_TRANSFORMATION(#552)
SHAPE_REPRESENTATION_RELATIONSHIP()
);
#560=(
REPRESENTATION_RELATIONSHIP($,$,#1086,#1085)
REPRESENTATION_RELATIONSHIP_WITH_TRANSFORMATION(#553)
SHAPE_REPRESENTATION_RELATIONSHIP()
);
#561=(
REPRESENTATION_RELATIONSHIP($,$,#1086,#1085)
REPRESENTATION_RELATIONSHIP_WITH_TRANSFORMATION(#554)
SHAPE_REPRESENTATION_RELATIONSHIP()
);
#562=(
REPRESENTATION_RELATIONSHIP($,$,#1086,#1085)
REPRESENTATION_RELATIONSHIP_WITH_TRANSFORMATION(#555)
SHAPE_REPRESENTATION_RELATIONSHIP()
);
#563=(
REPRESENTATION_RELATIONSHIP($,$,#1084,#1083)
REPRESENTATION_RELATIONSHIP_WITH_TRANSFORMATION(#556)
SHAPE_REPRESENTATION_RELATIONSHIP()
);
#564=(
REPRESENTATION_RELATIONSHIP($,$,#1085,#1083)
REPRESENTATION_RELATIONSHIP_WITH_TRANSFORMATION(#557)
SHAPE_REPRESENTATION_RELATIONSHIP()
);
#565=(
REPRESENTATION_RELATIONSHIP($,$,#1087,#1083)
REPRESENTATION_RELATIONSHIP_WITH_TRANSFORMATION(#558)
SHAPE_REPRESENTATION_RELATIONSHIP()
);
#566=CONTEXT_DEPENDENT_SHAPE_REPRESENTATION(#559,#1075);
#567=CONTEXT_DEPENDENT_SHAPE_REPRESENTATION(#560,#1076);
#568=CONTEXT_DEPENDENT_SHAPE_REPRESENTATION(#561,#1077);
#569=CONTEXT_DEPENDENT_SHAPE_REPRESENTATION(#562,#1078);
#570=CONTEXT_DEPENDENT_SHAPE_REPRESENTATION(#563,#1080);
#571=CONTEXT_DEPENDENT_SHAPE_REPRESENTATION(#564,#1081);
#572=CONTEXT_DEPENDENT_SHAPE_REPRESENTATION(#565,#1082);
#573=NEXT_ASSEMBLY_USAGE_OCCURRENCE(
'92610A247_Torx Alloy Steel Socket Head Screws:1',
'92610A247_Torx Alloy Steel Socket Head Screws:1',
'92610A247_Torx Alloy Steel Socket Head Screws:1',#1091,#1092,
'92610A247_Torx Alloy Steel Socket Head Screws:1');
#574=NEXT_ASSEMBLY_USAGE_OCCURRENCE(
'92610A247_Torx Alloy Steel Socket Head Screws:2',
'92610A247_Torx Alloy Steel Socket Head Screws:2',
'92610A247_Torx Alloy Steel Socket Head Screws:2',#1091,#1092,
'92610A247_Torx Alloy Steel Socket Head Screws:2');
#575=NEXT_ASSEMBLY_USAGE_OCCURRENCE(
'92610A247_Torx Alloy Steel Socket Head Screws:3',
'92610A247_Torx Alloy Steel Socket Head Screws:3',
'92610A247_Torx Alloy Steel Socket Head Screws:3',#1091,#1092,
'92610A247_Torx Alloy Steel Socket Head Screws:3');
#576=NEXT_ASSEMBLY_USAGE_OCCURRENCE(
'92610A247_Torx Alloy Steel Socket Head Screws:4',
'92610A247_Torx Alloy Steel Socket Head Screws:4',
'92610A247_Torx Alloy Steel Socket Head Screws:4',#1091,#1092,
'92610A247_Torx Alloy Steel Socket Head Screws:4');
#577=NEXT_ASSEMBLY_USAGE_OCCURRENCE('Box:1','Box:1','Box:1',#1089,#1090,
'Box:1');
#578=NEXT_ASSEMBLY_USAGE_OCCURRENCE('Screws:1','Screws:1','Screws:1',#1089,
#1091,'Screws:1');
#579=NEXT_ASSEMBLY_USAGE_OCCURRENCE('Lid:1','Lid:1','Lid:1',#1089,#1093,
'Lid:1');
#580=DERIVED_UNIT_ELEMENT(#586,1.);
#581=DERIVED_UNIT_ELEMENT(#1063,-3.);
#582=DERIVED_UNIT_ELEMENT(#586,1.);
#583=DERIVED_UNIT_ELEMENT(#1063,-3.);
#584=DERIVED_UNIT_ELEMENT(#586,1.);
#585=DERIVED_UNIT_ELEMENT(#1063,-3.);
#586=(
MASS_UNIT()
NAMED_UNIT(*)
SI_UNIT(.KILO.,.GRAM.)
);
#587=DERIVED_UNIT((#580,#581));
#588=DERIVED_UNIT((#582,#583));
#589=DERIVED_UNIT((#584,#585));
#590=MEASURE_REPRESENTATION_ITEM('density measure',
POSITIVE_RATIO_MEASURE(7850.),#587);
#591=MEASURE_REPRESENTATION_ITEM('density measure',
POSITIVE_RATIO_MEASURE(7850.),#588);
#592=MEASURE_REPRESENTATION_ITEM('density measure',
POSITIVE_RATIO_MEASURE(7850.),#589);
#593=PROPERTY_DEFINITION_REPRESENTATION(#608,#599);
#594=PROPERTY_DEFINITION_REPRESENTATION(#609,#600);
#595=PROPERTY_DEFINITION_REPRESENTATION(#610,#601);
#596=PROPERTY_DEFINITION_REPRESENTATION(#611,#602);
#597=PROPERTY_DEFINITION_REPRESENTATION(#612,#603);
#598=PROPERTY_DEFINITION_REPRESENTATION(#613,#604);
#599=REPRESENTATION('material name',(#605),#1057);
#600=REPRESENTATION('density',(#590),#1057);
#601=REPRESENTATION('material name',(#606),#1059);
#602=REPRESENTATION('density',(#591),#1059);
#603=REPRESENTATION('material name',(#607),#1060);
#604=REPRESENTATION('density',(#592),#1060);
#605=DESCRIPTIVE_REPRESENTATION_ITEM('Steel','Steel');
#606=DESCRIPTIVE_REPRESENTATION_ITEM('Steel','Steel');
#607=DESCRIPTIVE_REPRESENTATION_ITEM('Steel','Steel');
#608=PROPERTY_DEFINITION('material property','material name',#1090);
#609=PROPERTY_DEFINITION('material property','density of part',#1090);
#610=PROPERTY_DEFINITION('material property','material name',#1092);
#611=PROPERTY_DEFINITION('material property','density of part',#1092);
#612=PROPERTY_DEFINITION('material property','material name',#1093);
#613=PROPERTY_DEFINITION('material property','density of part',#1093);
#614=AXIS2_PLACEMENT_3D('',#885,#691,#692);
#615=AXIS2_PLACEMENT_3D('',#886,#693,#694);
#616=AXIS2_PLACEMENT_3D('',#887,#695,#696);
#617=AXIS2_PLACEMENT_3D('',#888,#697,#698);
#618=AXIS2_PLACEMENT_3D('',#889,#699,#700);
#619=AXIS2_PLACEMENT_3D('',#890,#701,#702);
#620=AXIS2_PLACEMENT_3D('',#891,#703,#704);
#621=AXIS2_PLACEMENT_3D('',#892,#705,#706);
#622=AXIS2_PLACEMENT_3D('',#893,#707,#708);
#623=AXIS2_PLACEMENT_3D('',#894,#709,#710);
#624=AXIS2_PLACEMENT_3D('',#896,#711,#712);
#625=AXIS2_PLACEMENT_3D('',#898,#713,#714);
#626=AXIS2_PLACEMENT_3D('',#899,#715,#716);
#627=AXIS2_PLACEMENT_3D('',#901,#717,#718);
#628=AXIS2_PLACEMENT_3D('',#903,#720,#721);
#629=AXIS2_PLACEMENT_3D('',#906,#723,#724);
#630=AXIS2_PLACEMENT_3D('',#907,#725,#726);
#631=AXIS2_PLACEMENT_3D('',#909,#727,#728);
#632=AXIS2_PLACEMENT_3D('',#911,#729,#730);
#633=AXIS2_PLACEMENT_3D('',#912,#731,#732);
#634=AXIS2_PLACEMENT_3D('',#914,#733,#734);
#635=AXIS2_PLACEMENT_3D('',#916,#736,#737);
#636=AXIS2_PLACEMENT_3D('',#919,#739,#740);
#637=AXIS2_PLACEMENT_3D('',#920,#741,#742);
#638=AXIS2_PLACEMENT_3D('',#922,#743,#744);
#639=AXIS2_PLACEMENT_3D('',#924,#745,#746);
#640=AXIS2_PLACEMENT_3D('',#925,#747,#748);
#641=AXIS2_PLACEMENT_3D('',#927,#749,#750);
#642=AXIS2_PLACEMENT_3D('',#929,#752,#753);
#643=AXIS2_PLACEMENT_3D('',#932,#755,#756);
#644=AXIS2_PLACEMENT_3D('',#933,#757,#758);
#645=AXIS2_PLACEMENT_3D('',#935,#759,#760);
#646=AXIS2_PLACEMENT_3D('',#937,#761,#762);
#647=AXIS2_PLACEMENT_3D('',#938,#763,#764);
#648=AXIS2_PLACEMENT_3D('',#940,#765,#766);
#649=AXIS2_PLACEMENT_3D('',#942,#768,#769);
#650=AXIS2_PLACEMENT_3D('',#945,#771,#772);
#651=AXIS2_PLACEMENT_3D('',#946,#773,#774);
#652=AXIS2_PLACEMENT_3D('',#949,#775,#776);
#653=AXIS2_PLACEMENT_3D('',#953,#778,#779);
#654=AXIS2_PLACEMENT_3D('',#955,#781,#782);
#655=AXIS2_PLACEMENT_3D('',#961,#786,#787);
#656=AXIS2_PLACEMENT_3D('',#963,#788,#789);
#657=AXIS2_PLACEMENT_3D('',#965,#790,#791);
#658=AXIS2_PLACEMENT_3D('',#967,#793,#794);
#659=AXIS2_PLACEMENT_3D('',#973,#798,#799);
#660=AXIS2_PLACEMENT_3D('',#975,#800,#801);
#661=AXIS2_PLACEMENT_3D('',#977,#802,#803);
#662=AXIS2_PLACEMENT_3D('',#979,#805,#806);
#663=AXIS2_PLACEMENT_3D('',#985,#810,#811);
#664=AXIS2_PLACEMENT_3D('',#987,#812,#813);
#665=AXIS2_PLACEMENT_3D('',#989,#814,#815);
#666=AXIS2_PLACEMENT_3D('',#991,#817,#818);
#667=AXIS2_PLACEMENT_3D('',#994,#821,#822);
#668=AXIS2_PLACEMENT_3D('',#995,#823,#824);
#669=AXIS2_PLACEMENT_3D('',#996,#825,#826);
#670=AXIS2_PLACEMENT_3D('',#1005,#831,#832);
#671=AXIS2_PLACEMENT_3D('',#1007,#833,#834);
#672=AXIS2_PLACEMENT_3D('',#1009,#835,#836);
#673=AXIS2_PLACEMENT_3D('',#1011,#838,#839);
#674=AXIS2_PLACEMENT_3D('',#1017,#843,#844);
#675=AXIS2_PLACEMENT_3D('',#1019,#845,#846);
#676=AXIS2_PLACEMENT_3D('',#1021,#847,#848);
#677=AXIS2_PLACEMENT_3D('',#1023,#850,#851);
#678=AXIS2_PLACEMENT_3D('',#1029,#855,#856);
#679=AXIS2_PLACEMENT_3D('',#1031,#857,#858);
#680=AXIS2_PLACEMENT_3D('',#1033,#859,#860);
#681=AXIS2_PLACEMENT_3D('',#1035,#862,#863);
#682=AXIS2_PLACEMENT_3D('',#1041,#867,#868);
#683=AXIS2_PLACEMENT_3D('',#1042,#869,#870);
#684=AXIS2_PLACEMENT_3D('',#1043,#871,#872);
#685=AXIS2_PLACEMENT_3D('',#1044,#873,#874);
#686=AXIS2_PLACEMENT_3D('',#1045,#875,#876);
#687=AXIS2_PLACEMENT_3D('',#1046,#877,#878);
#688=AXIS2_PLACEMENT_3D('',#1047,#879,#880);
#689=AXIS2_PLACEMENT_3D('',#1048,#881,#882);
#690=AXIS2_PLACEMENT_3D('',#1049,#883,#884);
#691=DIRECTION('axis',(0.,0.,1.));
#692=DIRECTION('refdir',(1.,0.,0.));
#693=DIRECTION('axis',(0.,0.,1.));
#694=DIRECTION('refdir',(1.,0.,0.));
#695=DIRECTION('axis',(0.,0.,1.));
#696=DIRECTION('refdir',(1.,0.,0.));
#697=DIRECTION('axis',(0.,0.,1.));
#698=DIRECTION('refdir',(1.,0.,0.));
#699=DIRECTION('',(-1.43491602734007E-17,6.16297582203918E-33,-0.999999999999999));
#700=DIRECTION('',(1.,-3.50324616081205E-46,3.46944695195538E-18));
#701=DIRECTION('',(1.99970433832996E-15,1.58849925480978E-16,-0.999999999999996));
#702=DIRECTION('',(1.,4.93038065763144E-32,-1.38430933382949E-15));
#703=DIRECTION('',(1.93590426194356E-14,1.58849925480978E-16,-0.999999999999998));
#704=DIRECTION('',(1.,-1.40129846432482E-45,1.93768612266609E-14));
#705=DIRECTION('',(-1.98318301498324E-14,1.58849925480978E-16,-0.999999999999999));
#706=DIRECTION('',(1.,-7.00649232162409E-46,-1.98140115426071E-14));
#707=DIRECTION('axis',(0.,0.,1.));
#708=DIRECTION('refdir',(1.,0.,0.));
#709=DIRECTION('center_axis',(0.,0.,-1.));
#710=DIRECTION('ref_axis',(1.,0.,0.));
#711=DIRECTION('center_axis',(0.,0.,-1.));
#712=DIRECTION('ref_axis',(1.,0.,0.));
#713=DIRECTION('center_axis',(0.,0.,-1.));
#714=DIRECTION('ref_axis',(1.,0.,0.));
#715=DIRECTION('center_axis',(0.,0.,-1.));
#716=DIRECTION('ref_axis',(1.,0.,0.));
#717=DIRECTION('center_axis',(0.,0.,-1.));
#718=DIRECTION('ref_axis',(1.,0.,0.));
#719=DIRECTION('',(0.,0.,-1.));
#720=DIRECTION('center_axis',(0.,0.,-1.));
#721=DIRECTION('ref_axis',(1.,0.,0.));
#722=DIRECTION('',(0.,0.,-1.));
#723=DIRECTION('center_axis',(0.,0.,1.));
#724=DIRECTION('ref_axis',(1.,0.,0.));
#725=DIRECTION('center_axis',(0.,0.,-1.));
#726=DIRECTION('ref_axis',(1.,0.,0.));
#727=DIRECTION('center_axis',(0.,0.,-1.));
#728=DIRECTION('ref_axis',(1.,0.,0.));
#729=DIRECTION('center_axis',(0.,0.,-1.));
#730=DIRECTION('ref_axis',(1.,0.,0.));
#731=DIRECTION('center_axis',(0.,0.,-1.));
#732=DIRECTION('ref_axis',(1.,0.,0.));
#733=DIRECTION('center_axis',(0.,0.,-1.));
#734=DIRECTION('ref_axis',(1.,0.,0.));
#735=DIRECTION('',(0.,0.,-1.));
#736=DIRECTION('center_axis',(0.,0.,-1.));
#737=DIRECTION('ref_axis',(1.,0.,0.));
#738=DIRECTION('',(0.,0.,-1.));
#739=DIRECTION('center_axis',(0.,0.,1.));
#740=DIRECTION('ref_axis',(1.,0.,0.));
#741=DIRECTION('center_axis',(0.,0.,-1.));
#742=DIRECTION('ref_axis',(1.,0.,0.));
#743=DIRECTION('center_axis',(0.,0.,-1.));
#744=DIRECTION('ref_axis',(1.,0.,0.));
#745=DIRECTION('center_axis',(0.,0.,-1.));
#746=DIRECTION('ref_axis',(1.,0.,0.));
#747=DIRECTION('center_axis',(0.,0.,-1.));
#748=DIRECTION('ref_axis',(1.,0.,0.));
#749=DIRECTION('center_axis',(0.,0.,-1.));
#750=DIRECTION('ref_axis',(1.,0.,0.));
#751=DIRECTION('',(0.,0.,-1.));
#752=DIRECTION('center_axis',(0.,0.,-1.));
#753=DIRECTION('ref_axis',(1.,0.,0.));
#754=DIRECTION('',(0.,0.,-1.));
#755=DIRECTION('center_axis',(0.,0.,1.));
#756=DIRECTION('ref_axis',(1.,0.,0.));
#757=DIRECTION('center_axis',(0.,0.,-1.));
#758=DIRECTION('ref_axis',(1.,0.,0.));
#759=DIRECTION('center_axis',(0.,0.,-1.));
#760=DIRECTION('ref_axis',(1.,0.,0.));
#761=DIRECTION('center_axis',(0.,0.,-1.));
#762=DIRECTION('ref_axis',(1.,0.,0.));
#763=DIRECTION('center_axis',(0.,0.,-1.));
#764=DIRECTION('ref_axis',(1.,0.,0.));
#765=DIRECTION('center_axis',(0.,0.,-1.));
#766=DIRECTION('ref_axis',(1.,0.,0.));
#767=DIRECTION('',(0.,0.,-1.));
#768=DIRECTION('center_axis',(0.,0.,-1.));
#769=DIRECTION('ref_axis',(1.,0.,0.));
#770=DIRECTION('',(0.,0.,-1.));
#771=DIRECTION('center_axis',(0.,0.,1.));
#772=DIRECTION('ref_axis',(1.,0.,0.));
#773=DIRECTION('center_axis',(0.,0.,1.));
#774=DIRECTION('ref_axis',(1.,2.09805925913413E-14,0.));
#775=DIRECTION('center_axis',(0.,0.,1.));
#776=DIRECTION('ref_axis',(1.,2.09805925913413E-14,0.));
#777=DIRECTION('',(0.,0.,1.));
#778=DIRECTION('center_axis',(0.,0.,1.));
#779=DIRECTION('ref_axis',(1.,2.09805925913413E-14,0.));
#780=DIRECTION('',(0.,0.,1.));
#781=DIRECTION('center_axis',(1.,-1.92322098753963E-15,0.));
#782=DIRECTION('ref_axis',(1.92322098753963E-15,1.,0.));
#783=DIRECTION('',(1.92322098753963E-15,1.,0.));
#784=DIRECTION('',(1.92322098753963E-15,1.,0.));
#785=DIRECTION('',(0.,0.,1.));
#786=DIRECTION('center_axis',(0.,0.,1.));
#787=DIRECTION('ref_axis',(-1.11896493820994E-14,-1.,0.));
#788=DIRECTION('center_axis',(0.,0.,1.));
#789=DIRECTION('ref_axis',(-1.11896493820994E-14,-1.,0.));
#790=DIRECTION('center_axis',(0.,0.,1.));
#791=DIRECTION('ref_axis',(-1.11896493820994E-14,-1.,0.));
#792=DIRECTION('',(0.,0.,1.));
#793=DIRECTION('center_axis',(-3.44844649137681E-13,-1.,0.));
#794=DIRECTION('ref_axis',(1.,-3.44844649137681E-13,0.));
#795=DIRECTION('',(1.,-3.44844649137681E-13,0.));
#796=DIRECTION('',(1.,-3.44844649137681E-13,0.));
#797=DIRECTION('',(0.,0.,1.));
#798=DIRECTION('center_axis',(0.,0.,1.));
#799=DIRECTION('ref_axis',(-1.,1.95818864184195E-14,0.));
#800=DIRECTION('center_axis',(0.,0.,1.));
#801=DIRECTION('ref_axis',(-1.,1.95818864184195E-14,0.));
#802=DIRECTION('center_axis',(0.,0.,1.));
#803=DIRECTION('ref_axis',(-1.,1.95818864184195E-14,0.));
#804=DIRECTION('',(0.,0.,1.));
#805=DIRECTION('center_axis',(-1.,1.42405772213761E-13,0.));
#806=DIRECTION('ref_axis',(-1.42405772213761E-13,-1.,0.));
#807=DIRECTION('',(-1.42405772213761E-13,-1.,0.));
#808=DIRECTION('',(-1.42405772213761E-13,-1.,0.));
#809=DIRECTION('',(0.,0.,1.));
#810=DIRECTION('center_axis',(0.,0.,1.));
#811=DIRECTION('ref_axis',(4.19611851827022E-15,1.,0.));
#812=DIRECTION('center_axis',(0.,0.,1.));
#813=DIRECTION('ref_axis',(4.19611851827022E-15,1.,0.));
#814=DIRECTION('center_axis',(0.,0.,1.));
#815=DIRECTION('ref_axis',(4.19611851827022E-15,1.,0.));
#816=DIRECTION('',(0.,0.,1.));
#817=DIRECTION('center_axis',(-3.36961032527632E-15,1.,0.));
#818=DIRECTION('ref_axis',(-1.,-3.36961032527632E-15,0.));
#819=DIRECTION('',(-1.,-3.36961032527632E-15,0.));
#820=DIRECTION('',(-1.,-3.36961032527632E-15,0.));
#821=DIRECTION('center_axis',(0.,0.,1.));
#822=DIRECTION('ref_axis',(-1.,0.,0.));
#823=DIRECTION('center_axis',(0.,0.,1.));
#824=DIRECTION('ref_axis',(-1.,0.,0.));
#825=DIRECTION('center_axis',(1.,9.21397627631394E-14,0.));
#826=DIRECTION('ref_axis',(9.21397627631394E-14,-1.,0.));
#827=DIRECTION('',(9.21397627631394E-14,-1.,0.));
#828=DIRECTION('',(0.,0.,-1.));
#829=DIRECTION('',(9.21397627631394E-14,-1.,0.));
#830=DIRECTION('',(0.,0.,-1.));
#831=DIRECTION('center_axis',(0.,0.,-1.));
#832=DIRECTION('ref_axis',(0.999999999987334,5.03312148908136E-6,0.));
#833=DIRECTION('center_axis',(0.,0.,1.));
#834=DIRECTION('ref_axis',(0.999999999987334,5.03312148908136E-6,0.));
#835=DIRECTION('center_axis',(0.,0.,-1.));
#836=DIRECTION('ref_axis',(0.999999999987334,5.03312148908136E-6,0.));
#837=DIRECTION('',(0.,0.,-1.));
#838=DIRECTION('center_axis',(4.67549282998759E-13,1.,0.));
#839=DIRECTION('ref_axis',(1.,-4.67549282998759E-13,0.));
#840=DIRECTION('',(1.,-4.67549282998759E-13,0.));
#841=DIRECTION('',(1.,-4.67549282998759E-13,0.));
#842=DIRECTION('',(0.,0.,-1.));
#843=DIRECTION('center_axis',(0.,0.,-1.));
#844=DIRECTION('ref_axis',(-1.2328934234003E-6,0.99999999999924,0.));
#845=DIRECTION('center_axis',(0.,0.,1.));
#846=DIRECTION('ref_axis',(-1.2328934234003E-6,0.99999999999924,0.));
#847=DIRECTION('center_axis',(0.,0.,-1.));
#848=DIRECTION('ref_axis',(-1.2328934234003E-6,0.99999999999924,0.));
#849=DIRECTION('',(0.,0.,-1.));
#850=DIRECTION('center_axis',(-1.,4.57027085173075E-13,0.));
#851=DIRECTION('ref_axis',(4.57027085173075E-13,1.,0.));
#852=DIRECTION('',(4.57027085173075E-13,1.,0.));
#853=DIRECTION('',(4.57027085173075E-13,1.,0.));
#854=DIRECTION('',(0.,0.,-1.));
#855=DIRECTION('center_axis',(0.,0.,-1.));
#856=DIRECTION('ref_axis',(-0.999999999889042,-1.48968462327608E-5,0.));
#857=DIRECTION('center_axis',(0.,0.,1.));
#858=DIRECTION('ref_axis',(-0.999999999889042,-1.48968462327608E-5,0.));
#859=DIRECTION('center_axis',(0.,0.,-1.));
#860=DIRECTION('ref_axis',(-0.999999999889042,-1.48968462327608E-5,0.));
#861=DIRECTION('',(0.,0.,-1.));
#862=DIRECTION('center_axis',(-7.01260307776413E-13,-1.,0.));
#863=DIRECTION('ref_axis',(-1.,7.01260307776413E-13,0.));
#864=DIRECTION('',(-1.,7.01260307776413E-13,0.));
#865=DIRECTION('',(-1.,7.01260307776413E-13,0.));
#866=DIRECTION('',(0.,0.,-1.));
#867=DIRECTION('center_axis',(0.,0.,-1.));
#868=DIRECTION('ref_axis',(6.73880311817162E-6,-0.999999999977294,0.));
#869=DIRECTION('center_axis',(0.,0.,1.));
#870=DIRECTION('ref_axis',(6.73880311817162E-6,-0.999999999977294,0.));
#871=DIRECTION('center_axis',(0.,0.,-1.));
#872=DIRECTION('ref_axis',(6.73880311817162E-6,-0.999999999977294,0.));
#873=DIRECTION('center_axis',(0.,0.,1.));
#874=DIRECTION('ref_axis',(-1.,0.,0.));
#875=DIRECTION('center_axis',(0.,0.,1.));
#876=DIRECTION('ref_axis',(-1.,0.,0.));
#877=DIRECTION('',(0.,0.,1.));
#878=DIRECTION('',(1.,0.,0.));
#879=DIRECTION('',(0.,0.,1.));
#880=DIRECTION('',(1.,0.,0.));
#881=DIRECTION('',(2.76101316827354E-30,-6.5341660417542E-60,0.999999999999999));
#882=DIRECTION('',(1.,0.,1.77493703674728E-30));
#883=DIRECTION('center_axis',(0.,0.,1.));
#884=DIRECTION('ref_axis',(1.,0.,0.));
#885=CARTESIAN_POINT('',(0.,0.,0.));
#886=CARTESIAN_POINT('',(0.,0.,0.));
#887=CARTESIAN_POINT('',(0.,0.,0.));
#888=CARTESIAN_POINT('',(0.,0.,0.));
#889=CARTESIAN_POINT('',(144.486248662911,-106.973751336956,47.8479999999999));
#890=CARTESIAN_POINT('',(-144.780000000096,-106.679999999956,47.7575125));
#891=CARTESIAN_POINT('',(144.779999999905,106.680000000044,47.7575125));
#892=CARTESIAN_POINT('',(-144.780000000096,106.680000000044,47.848));
#893=CARTESIAN_POINT('',(0.,0.,0.));
#894=CARTESIAN_POINT('Origin',(144.78,-106.68,54.96));
#895=CARTESIAN_POINT('',(139.28,-106.68,54.96));
#896=CARTESIAN_POINT('Origin',(144.78,-106.68,54.96));
#897=CARTESIAN_POINT('',(141.48,-106.68,54.96));
#898=CARTESIAN_POINT('Origin',(144.78,-106.68,54.96));
#899=CARTESIAN_POINT('Origin',(144.78,-106.68,57.96));
#900=CARTESIAN_POINT('',(139.28,-106.68,60.96));
#901=CARTESIAN_POINT('Origin',(144.78,-106.68,60.96));
#902=CARTESIAN_POINT('',(139.28,-106.68,57.96));
#903=CARTESIAN_POINT('Origin',(144.78,-106.68,45.96));
#904=CARTESIAN_POINT('',(141.48,-106.68,50.8));
#905=CARTESIAN_POINT('',(141.48,-106.68,45.96));
#906=CARTESIAN_POINT('Origin',(144.78,-106.68,50.8));
#907=CARTESIAN_POINT('Origin',(-144.78,106.68,54.96));
#908=CARTESIAN_POINT('',(-150.28,106.68,54.96));
#909=CARTESIAN_POINT('Origin',(-144.78,106.68,54.96));
#910=CARTESIAN_POINT('',(-148.08,106.68,54.96));
#911=CARTESIAN_POINT('Origin',(-144.78,106.68,54.96));
#912=CARTESIAN_POINT('Origin',(-144.78,106.68,57.96));
#913=CARTESIAN_POINT('',(-150.28,106.68,60.96));
#914=CARTESIAN_POINT('Origin',(-144.78,106.68,60.96));
#915=CARTESIAN_POINT('',(-150.28,106.68,57.96));
#916=CARTESIAN_POINT('Origin',(-144.78,106.68,45.96));
#917=CARTESIAN_POINT('',(-148.08,106.68,50.8));
#918=CARTESIAN_POINT('',(-148.08,106.68,45.96));
#919=CARTESIAN_POINT('Origin',(-144.78,106.68,50.8));
#920=CARTESIAN_POINT('Origin',(144.78,106.68,54.96));
#921=CARTESIAN_POINT('',(139.28,106.68,54.96));
#922=CARTESIAN_POINT('Origin',(144.78,106.68,54.96));
#923=CARTESIAN_POINT('',(141.48,106.68,54.96));
#924=CARTESIAN_POINT('Origin',(144.78,106.68,54.96));
#925=CARTESIAN_POINT('Origin',(144.78,106.68,57.96));
#926=CARTESIAN_POINT('',(139.28,106.68,60.96));
#927=CARTESIAN_POINT('Origin',(144.78,106.68,60.96));
#928=CARTESIAN_POINT('',(139.28,106.68,57.96));
#929=CARTESIAN_POINT('Origin',(144.78,106.68,45.96));
#930=CARTESIAN_POINT('',(141.48,106.68,50.8));
#931=CARTESIAN_POINT('',(141.48,106.68,45.96));
#932=CARTESIAN_POINT('Origin',(144.78,106.68,50.8));
#933=CARTESIAN_POINT('Origin',(-144.78,-106.68,54.96));
#934=CARTESIAN_POINT('',(-150.28,-106.68,54.96));
#935=CARTESIAN_POINT('Origin',(-144.78,-106.68,54.96));
#936=CARTESIAN_POINT('',(-148.08,-106.68,54.96));
#937=CARTESIAN_POINT('Origin',(-144.78,-106.68,54.96));
#938=CARTESIAN_POINT('Origin',(-144.78,-106.68,57.96));
#939=CARTESIAN_POINT('',(-150.28,-106.68,60.96));
#940=CARTESIAN_POINT('Origin',(-144.78,-106.68,60.96));
#941=CARTESIAN_POINT('',(-150.28,-106.68,57.96));
#942=CARTESIAN_POINT('Origin',(-144.78,-106.68,45.96));
#943=CARTESIAN_POINT('',(-148.08,-106.68,50.8));
#944=CARTESIAN_POINT('',(-148.08,-106.68,45.96));
#945=CARTESIAN_POINT('Origin',(-144.78,-106.68,50.8));
#946=CARTESIAN_POINT('Origin',(139.7,101.599999999997,50.8));
#947=CARTESIAN_POINT('',(152.4,101.599999999998,50.8));
#948=CARTESIAN_POINT('',(139.699999999999,114.299999999998,50.8));
#949=CARTESIAN_POINT('Origin',(139.7,101.599999999997,50.8));
#950=CARTESIAN_POINT('',(139.699999999999,114.299999999998,60.96));
#951=CARTESIAN_POINT('',(139.699999999999,114.299999999998,50.8));
#952=CARTESIAN_POINT('',(152.4,101.599999999998,60.96));
#953=CARTESIAN_POINT('Origin',(139.7,101.599999999997,60.96));
#954=CARTESIAN_POINT('',(152.4,101.599999999998,50.8));
#955=CARTESIAN_POINT('Origin',(152.399999999999,-101.600000000004,50.8));
#956=CARTESIAN_POINT('',(152.399999999999,-101.600000000004,50.8));
#957=CARTESIAN_POINT('',(152.399999999999,-101.600000000004,50.8));
#958=CARTESIAN_POINT('',(152.399999999999,-101.600000000004,60.96));
#959=CARTESIAN_POINT('',(152.399999999999,-101.600000000004,60.96));
#960=CARTESIAN_POINT('',(152.399999999999,-101.600000000004,50.8));
#961=CARTESIAN_POINT('Origin',(139.700000000001,-101.60000000006,50.8));
#962=CARTESIAN_POINT('',(139.700000000001,-114.300000000002,50.8));
#963=CARTESIAN_POINT('Origin',(139.700000000001,-101.60000000006,50.8));
#964=CARTESIAN_POINT('',(139.700000000001,-114.300000000002,60.96));
#965=CARTESIAN_POINT('Origin',(139.700000000001,-101.60000000006,60.96));
#966=CARTESIAN_POINT('',(139.700000000001,-114.300000000002,50.8));
#967=CARTESIAN_POINT('Origin',(-139.700000000004,-114.299999999906,50.8));
#968=CARTESIAN_POINT('',(-139.700000000004,-114.299999999906,50.8));
#969=CARTESIAN_POINT('',(-139.700000000004,-114.299999999906,50.8));
#970=CARTESIAN_POINT('',(-139.700000000004,-114.299999999906,60.96));
#971=CARTESIAN_POINT('',(-139.700000000004,-114.299999999906,60.96));
#972=CARTESIAN_POINT('',(-139.700000000004,-114.299999999906,50.8));
#973=CARTESIAN_POINT('Origin',(-139.699999999895,-101.599999999955,50.8));
#974=CARTESIAN_POINT('',(-152.400000000003,-101.599999999954,50.8));
#975=CARTESIAN_POINT('Origin',(-139.699999999895,-101.599999999955,50.8));
#976=CARTESIAN_POINT('',(-152.400000000003,-101.599999999954,60.96));
#977=CARTESIAN_POINT('Origin',(-139.699999999895,-101.599999999955,60.96));
#978=CARTESIAN_POINT('',(-152.400000000003,-101.599999999954,50.8));
#979=CARTESIAN_POINT('Origin',(-152.399999999974,101.600000000003,50.8));
#980=CARTESIAN_POINT('',(-152.399999999974,101.600000000003,50.8));
#981=CARTESIAN_POINT('',(-152.399999999974,101.600000000003,50.8));
#982=CARTESIAN_POINT('',(-152.399999999974,101.600000000003,60.96));
#983=CARTESIAN_POINT('',(-152.399999999974,101.600000000003,60.96));
#984=CARTESIAN_POINT('',(-152.399999999974,101.600000000003,50.8));
#985=CARTESIAN_POINT('Origin',(-139.69999999998,101.600000000003,50.8));
#986=CARTESIAN_POINT('',(-139.69999999998,114.299999999997,50.8));
#987=CARTESIAN_POINT('Origin',(-139.69999999998,101.600000000003,50.8));
#988=CARTESIAN_POINT('',(-139.69999999998,114.299999999997,60.96));
#989=CARTESIAN_POINT('Origin',(-139.69999999998,101.600000000003,60.96));
#990=CARTESIAN_POINT('',(-139.69999999998,114.299999999997,50.8));
#991=CARTESIAN_POINT('Origin',(139.699999999999,114.299999999998,50.8));
#992=CARTESIAN_POINT('',(139.699999999999,114.299999999998,50.8));
#993=CARTESIAN_POINT('',(139.699999999999,114.299999999998,60.96));
#994=CARTESIAN_POINT('Origin',(-1.54543045027822E-12,-3.19921866775985E-11,
60.96));
#995=CARTESIAN_POINT('Origin',(-1.54543045027822E-12,-3.19921866775985E-11,
50.8));
#996=CARTESIAN_POINT('Origin',(142.239999999996,101.600012784126,50.8));
#997=CARTESIAN_POINT('',(142.239999999996,101.600012784126,50.8));
#998=CARTESIAN_POINT('',(142.240000000057,-101.600001257681,50.8));
#999=CARTESIAN_POINT('',(142.239999999996,101.600012784126,50.8));
#1000=CARTESIAN_POINT('',(142.240000000057,-101.600001257681,47.625));
#1001=CARTESIAN_POINT('',(142.240000000057,-101.600001257681,50.8));
#1002=CARTESIAN_POINT('',(142.239999999996,101.600012784126,47.625));
#1003=CARTESIAN_POINT('',(142.239999999996,101.600012784126,47.625));
#1004=CARTESIAN_POINT('',(142.239999999996,101.600012784126,50.8));
#1005=CARTESIAN_POINT('Origin',(139.7,101.599999999997,50.8));
#1006=CARTESIAN_POINT('',(139.70002317509,104.13999999992,50.8));
#1007=CARTESIAN_POINT('Origin',(139.7,101.599999999997,50.8));
#1008=CARTESIAN_POINT('',(139.70002317509,104.13999999992,47.625));
#1009=CARTESIAN_POINT('Origin',(139.7,101.599999999997,47.625));
#1010=CARTESIAN_POINT('',(139.70002317509,104.13999999992,50.8));
#1011=CARTESIAN_POINT('Origin',(-139.700003131529,104.139999999997,50.8));
#1012=CARTESIAN_POINT('',(-139.700003131529,104.139999999997,50.8));
#1013=CARTESIAN_POINT('',(-139.700003131529,104.139999999997,50.8));
#1014=CARTESIAN_POINT('',(-139.700003131529,104.139999999997,47.625));
#1015=CARTESIAN_POINT('',(-139.700003131529,104.139999999997,47.625));
#1016=CARTESIAN_POINT('',(-139.700003131529,104.139999999997,50.8));
#1017=CARTESIAN_POINT('Origin',(-139.69999999998,101.600000000003,50.8));
#1018=CARTESIAN_POINT('',(-142.239999999776,101.600031866188,50.8));
#1019=CARTESIAN_POINT('Origin',(-139.69999999998,101.600000000003,50.8));
#1020=CARTESIAN_POINT('',(-142.239999999776,101.600031866188,47.625));
#1021=CARTESIAN_POINT('Origin',(-139.69999999998,101.600000000003,47.625));
#1022=CARTESIAN_POINT('',(-142.239999999776,101.600031866188,50.8));
#1023=CARTESIAN_POINT('Origin',(-142.239999999869,-101.600037837944,50.8));
#1024=CARTESIAN_POINT('',(-142.239999999869,-101.600037837944,50.8));
#1025=CARTESIAN_POINT('',(-142.239999999869,-101.600037837944,50.8));
#1026=CARTESIAN_POINT('',(-142.239999999869,-101.600037837944,47.625));
#1027=CARTESIAN_POINT('',(-142.239999999869,-101.600037837944,47.625));
#1028=CARTESIAN_POINT('',(-142.239999999869,-101.600037837944,50.8));
#1029=CARTESIAN_POINT('Origin',(-139.699999999895,-101.599999999955,50.8));
#1030=CARTESIAN_POINT('',(-139.700024798143,-104.140000000089,50.8));
#1031=CARTESIAN_POINT('Origin',(-139.699999999895,-101.599999999955,50.8));
#1032=CARTESIAN_POINT('',(-139.700024798143,-104.140000000089,47.625));
#1033=CARTESIAN_POINT('Origin',(-139.699999999895,-101.599999999955,47.625));
#1034=CARTESIAN_POINT('',(-139.700024798143,-104.140000000089,50.8));
#1035=CARTESIAN_POINT('Origin',(139.700017116561,-104.140000000059,50.8));
#1036=CARTESIAN_POINT('',(139.700017116561,-104.140000000059,50.8));
#1037=CARTESIAN_POINT('',(139.700017116561,-104.140000000059,50.8));
#1038=CARTESIAN_POINT('',(139.700017116561,-104.140000000059,47.625));
#1039=CARTESIAN_POINT('',(139.700017116561,-104.140000000059,47.625));
#1040=CARTESIAN_POINT('',(139.700017116561,-104.140000000059,50.8));
#1041=CARTESIAN_POINT('Origin',(139.700000000001,-101.60000000006,50.8));
#1042=CARTESIAN_POINT('Origin',(139.700000000001,-101.60000000006,50.8));
#1043=CARTESIAN_POINT('Origin',(139.700000000001,-101.60000000006,47.625));
#1044=CARTESIAN_POINT('Origin',(9.40403310778493E-11,-4.58655335933145E-11,
50.8));
#1045=CARTESIAN_POINT('Origin',(9.40403310778493E-11,-4.58655335933145E-11,
47.625));
#1046=CARTESIAN_POINT('',(0.,0.,0.));
#1047=CARTESIAN_POINT('',(0.,0.,0.));
#1048=CARTESIAN_POINT('',(-9.55679979597335E-11,4.38760139331861E-11,3.17500000000004));
#1049=CARTESIAN_POINT('Origin',(0.,0.,0.));
#1050=UNCERTAINTY_MEASURE_WITH_UNIT(LENGTH_MEASURE(0.01),#1062,
'DISTANCE_ACCURACY_VALUE',
'Maximum model space distance between geometric entities at asserted c
onnectivities');
#1051=UNCERTAINTY_MEASURE_WITH_UNIT(LENGTH_MEASURE(0.01),#1062,
'DISTANCE_ACCURACY_VALUE',
'Maximum model space distance between geometric entities at asserted c
onnectivities');
#1052=UNCERTAINTY_MEASURE_WITH_UNIT(LENGTH_MEASURE(0.01),#1062,
'DISTANCE_ACCURACY_VALUE',
'Maximum model space distance between geometric entities at asserted c
onnectivities');
#1053=UNCERTAINTY_MEASURE_WITH_UNIT(LENGTH_MEASURE(0.01),#1062,
'DISTANCE_ACCURACY_VALUE',
'Maximum model space distance between geometric entities at asserted c
onnectivities');
#1054=UNCERTAINTY_MEASURE_WITH_UNIT(LENGTH_MEASURE(0.01),#1062,
'DISTANCE_ACCURACY_VALUE',
'Maximum model space distance between geometric entities at asserted c
onnectivities');
#1055=UNCERTAINTY_MEASURE_WITH_UNIT(LENGTH_MEASURE(0.01),#1062,
'DISTANCE_ACCURACY_VALUE',
'Maximum model space distance between geometric entities at asserted c
onnectivities');
#1056=(
GEOMETRIC_REPRESENTATION_CONTEXT(3)
GLOBAL_UNCERTAINTY_ASSIGNED_CONTEXT((#1050))
GLOBAL_UNIT_ASSIGNED_CONTEXT((#1062,#1064,#1065))
REPRESENTATION_CONTEXT('','3D')
);
#1057=(
GEOMETRIC_REPRESENTATION_CONTEXT(3)
GLOBAL_UNCERTAINTY_ASSIGNED_CONTEXT((#1051))
GLOBAL_UNIT_ASSIGNED_CONTEXT((#1062,#1064,#1065))
REPRESENTATION_CONTEXT('','3D')
);
#1058=(
GEOMETRIC_REPRESENTATION_CONTEXT(3)
GLOBAL_UNCERTAINTY_ASSIGNED_CONTEXT((#1052))
GLOBAL_UNIT_ASSIGNED_CONTEXT((#1062,#1064,#1065))
REPRESENTATION_CONTEXT('','3D')
);
#1059=(
GEOMETRIC_REPRESENTATION_CONTEXT(3)
GLOBAL_UNCERTAINTY_ASSIGNED_CONTEXT((#1053))
GLOBAL_UNIT_ASSIGNED_CONTEXT((#1062,#1064,#1065))
REPRESENTATION_CONTEXT('','3D')
);
#1060=(
GEOMETRIC_REPRESENTATION_CONTEXT(3)
GLOBAL_UNCERTAINTY_ASSIGNED_CONTEXT((#1054))
GLOBAL_UNIT_ASSIGNED_CONTEXT((#1062,#1064,#1065))
REPRESENTATION_CONTEXT('','3D')
);
#1061=(
GEOMETRIC_REPRESENTATION_CONTEXT(3)
GLOBAL_UNCERTAINTY_ASSIGNED_CONTEXT((#1055))
GLOBAL_UNIT_ASSIGNED_CONTEXT((#1062,#1064,#1065))
REPRESENTATION_CONTEXT('','3D')
);
#1062=(
LENGTH_UNIT()
NAMED_UNIT(*)
SI_UNIT(.MILLI.,.METRE.)
);
#1063=(
LENGTH_UNIT()
NAMED_UNIT(*)
SI_UNIT($,.METRE.)
);
#1064=(
NAMED_UNIT(*)
PLANE_ANGLE_UNIT()
SI_UNIT($,.RADIAN.)
);
#1065=(
NAMED_UNIT(*)
SI_UNIT($,.STERADIAN.)
SOLID_ANGLE_UNIT()
);
#1066=SHAPE_DEFINITION_REPRESENTATION(#1071,#1083);
#1067=SHAPE_DEFINITION_REPRESENTATION(#1072,#1084);
#1068=SHAPE_DEFINITION_REPRESENTATION(#1073,#1085);
#1069=SHAPE_DEFINITION_REPRESENTATION(#1074,#1086);
#1070=SHAPE_DEFINITION_REPRESENTATION(#1079,#1087);
#1071=PRODUCT_DEFINITION_SHAPE('',$,#1089);
#1072=PRODUCT_DEFINITION_SHAPE('',$,#1090);
#1073=PRODUCT_DEFINITION_SHAPE('',$,#1091);
#1074=PRODUCT_DEFINITION_SHAPE('',$,#1092);
#1075=PRODUCT_DEFINITION_SHAPE($,$,#573);
#1076=PRODUCT_DEFINITION_SHAPE($,$,#574);
#1077=PRODUCT_DEFINITION_SHAPE($,$,#575);
#1078=PRODUCT_DEFINITION_SHAPE($,$,#576);
#1079=PRODUCT_DEFINITION_SHAPE('',$,#1093);
#1080=PRODUCT_DEFINITION_SHAPE($,$,#577);
#1081=PRODUCT_DEFINITION_SHAPE($,$,#578);
#1082=PRODUCT_DEFINITION_SHAPE($,$,#579);
#1083=SHAPE_REPRESENTATION('',(#614,#687,#688,#689),#1056);
#1084=SHAPE_REPRESENTATION('',(#615),#1057);
#1085=SHAPE_REPRESENTATION('',(#616,#618,#619,#620,#621),#1058);
#1086=SHAPE_REPRESENTATION('',(#617),#1059);
#1087=SHAPE_REPRESENTATION('',(#622),#1060);
#1088=PRODUCT_DEFINITION_CONTEXT('part definition',#1105,'design');
#1089=PRODUCT_DEFINITION('Box for SRS','Box for SRS v12',#1094,#1088);
#1090=PRODUCT_DEFINITION('Box','Box',#1095,#1088);
#1091=PRODUCT_DEFINITION('Screws','Screws',#1096,#1088);
#1092=PRODUCT_DEFINITION(
'92610A247_Torx Alloy Steel Socket Head Screws',
'92610A247_Torx Alloy Steel Socket Head Screws',#1097,#1088);
#1093=PRODUCT_DEFINITION('Lid','Lid',#1098,#1088);
#1094=PRODUCT_DEFINITION_FORMATION('',$,#1107);
#1095=PRODUCT_DEFINITION_FORMATION('',$,#1108);
#1096=PRODUCT_DEFINITION_FORMATION('',$,#1109);
#1097=PRODUCT_DEFINITION_FORMATION('',$,#1110);
#1098=PRODUCT_DEFINITION_FORMATION('',$,#1111);
#1099=PRODUCT_RELATED_PRODUCT_CATEGORY('Box for SRS v12',
'Box for SRS v12',(#1107));
#1100=PRODUCT_RELATED_PRODUCT_CATEGORY('Box','Box',(#1108));
#1101=PRODUCT_RELATED_PRODUCT_CATEGORY('Screws','Screws',(#1109));
#1102=PRODUCT_RELATED_PRODUCT_CATEGORY(
'92610A247_Torx Alloy Steel Socket Head Screws',
'92610A247_Torx Alloy Steel Socket Head Screws',(#1110));
#1103=PRODUCT_RELATED_PRODUCT_CATEGORY('Lid','Lid',(#1111));
#1104=APPLICATION_PROTOCOL_DEFINITION('international standard',
'automotive_design',2009,#1105);
#1105=APPLICATION_CONTEXT(
'Core Data for Automotive Mechanical Design Process');
#1106=PRODUCT_CONTEXT('part definition',#1105,'mechanical');
#1107=PRODUCT('Box for SRS','Box for SRS v12',$,(#1106));
#1108=PRODUCT('Box','Box',$,(#1106));
#1109=PRODUCT('Screws','Screws',$,(#1106));
#1110=PRODUCT('92610A247_Torx Alloy Steel Socket Head Screws',
'92610A247_Torx Alloy Steel Socket Head Screws',$,(#1106));
#1111=PRODUCT('Lid','Lid',$,(#1106));
#1112=PRESENTATION_STYLE_ASSIGNMENT((#1116));
#1113=PRESENTATION_STYLE_ASSIGNMENT((#1117));
#1114=PRESENTATION_STYLE_ASSIGNMENT((#1118));
#1115=PRESENTATION_STYLE_ASSIGNMENT((NULL_STYLE(.NULL.)));
#1116=SURFACE_STYLE_USAGE(.BOTH.,#1119);
#1117=SURFACE_STYLE_USAGE(.BOTH.,#1120);
#1118=SURFACE_STYLE_USAGE(.BOTH.,#1121);
#1119=SURFACE_SIDE_STYLE('',(#1122));
#1120=SURFACE_SIDE_STYLE('',(#1123));
#1121=SURFACE_SIDE_STYLE('',(#1124));
#1122=SURFACE_STYLE_FILL_AREA(#1125);
#1123=SURFACE_STYLE_FILL_AREA(#1126);
#1124=SURFACE_STYLE_FILL_AREA(#1127);
#1125=FILL_AREA_STYLE('Steel - Satin',(#1128));
#1126=FILL_AREA_STYLE('Oak',(#1129));
#1127=FILL_AREA_STYLE('Walnut',(#1130));
#1128=FILL_AREA_STYLE_COLOUR('Steel - Satin',#1131);
#1129=FILL_AREA_STYLE_COLOUR('Oak',#1132);
#1130=FILL_AREA_STYLE_COLOUR('Walnut',#1133);
#1131=COLOUR_RGB('Steel - Satin',0.627450980392157,0.627450980392157,0.627450980392157);
#1132=COLOUR_RGB('Oak',0.,0.,0.);
#1133=COLOUR_RGB('Walnut',0.,0.,0.);
ENDSEC;
END-ISO-10303-21;
